<?xml version="1.0" encoding="utf-8"?>
<svg id="master-artboard" viewBox="0 0 327.7977600097656 341.9666748046875" version="1.1" xmlns="http://www.w3.org/2000/svg" x="0px" y="0px" style="enable-background:new 0 0 634.5 451.1;" width="327.7977600097656px" height="341.9666748046875px"><rect id="ee-background" x="0" y="0" width="327.7977600097656" height="341.9666748046875" style="fill: white; fill-opacity: 0; pointer-events: none;"/>


<g transform="matrix(1, 0, 0, 1, -148.01990694322012, -40.14099171341563)">
		<path class="st1" d="M298.3,216.5c13.6,1.2,27.4,1.3,41.1,0.6c6.9-0.4,13.7-1,20.6-2.1c6.9-1.1,13.7-2.6,20.4-5.3&#10;&#9;&#9;&#9;c3.3-1.4,6.6-3,9.7-5.4c1.5-1.2,2.9-2.7,4.1-4.4c0.6-0.9,1.1-1.8,1.5-2.8c0.4-1,0.8-2.1,1-3.2c0.4-2.3,0-4.9-1-7&#10;&#9;&#9;&#9;c-1-2.1-2.5-3.7-4.1-5c-3.1-2.6-6.5-4.2-9.8-5.6c-6.7-2.7-13.6-4.2-20.4-5.5c-6.9-1.3-13.7-2.1-20.6-2.8c-6.9-0.6-13.7-1-20.7-1.2&#10;&#9;&#9;&#9;c-6.9-0.2-13.8-0.2-20.7,0.1c-6.9,0.3-13.8,0.9-20.7,1.8c-6.9,0.9-13.8,2.2-20.5,4.3c-3.4,1-6.7,2.3-10,3.8&#10;&#9;&#9;&#9;c-3.2,1.6-6.4,3.5-9.1,6.2c-1.4,1.3-2.6,2.9-3.6,4.6c-1,1.7-1.7,3.7-1.8,5.9c-0.1,2.2,0.7,4.4,1.8,6c1.1,1.7,2.5,3,4,4.1&#10;&#9;&#9;&#9;c3,2.2,6.2,3.7,9.5,4.9c3.3,1.2,6.6,2.2,10,3c6.7,1.6,13.5,2.7,20.3,3.3c-3.4-0.7-6.7-1.5-10-2.3c-3.3-0.9-6.6-1.8-9.8-2.9&#10;&#9;&#9;&#9;c-3.2-1.1-6.4-2.3-9.4-3.7c-3-1.4-5.9-3.1-8.4-5.1c-2.4-2-4.1-4.6-3.8-7.1c0.2-2.5,2.1-5.2,4.4-7.1c2.3-2,5.1-3.6,8.1-4.9&#10;&#9;&#9;&#9;c3-1.3,6.1-2.3,9.3-3.1c12.9-3.2,26.4-4.3,39.9-4.7c6.8-0.2,13.5-0.2,20.3,0.1c6.7,0.2,13.5,0.7,20.2,1.4c6.7,0.6,13.4,1.4,20,2.6&#10;&#9;&#9;&#9;c6.6,1.2,13.1,2.7,19.2,4.9c3,1.1,5.9,2.5,8.1,4.3c1.1,0.9,2,1.9,2.5,2.8c0.5,1,0.7,1.9,0.5,3c-0.1,0.6-0.2,1.1-0.5,1.7&#10;&#9;&#9;&#9;c-0.3,0.6-0.5,1.2-0.9,1.8c-0.7,1.1-1.7,2.2-2.8,3.2c-2.2,2-5,3.5-8,4.9c-5.9,2.7-12.5,4.4-19,5.8c-6.6,1.4-13.3,2.4-20,3.2&#10;&#9;&#9;&#9;C325.6,215.2,311.9,216,298.3,216.5z" style="fill: rgb(235, 213, 191);"/>
	</g>
<g transform="matrix(1, 0, 0, 1, -148.01990694322012, -40.14099171341563)">
		<path class="st1" d="M395.2,197.7c-0.8,11.3-2.7,22.4-5.8,33.1c-3.1,10.7-7.4,21-13.4,30c-3,4.5-6.5,8.7-10.4,12.3&#10;&#9;&#9;&#9;c-3.9,3.7-8.2,6.8-12.9,9.3c-9.3,5.1-19.9,7.6-30.7,7.9c-10.8,0.4-21.7-0.8-31.8-4.2c-5.1-1.7-9.9-4-14.4-6.9&#10;&#9;&#9;&#9;c-4.5-2.9-8.6-6.4-12.4-10.3c-7.4-7.9-13.1-17.4-17.3-27.7c-2.1-5.1-3.8-10.4-5.2-15.9c-0.7-2.7-1.3-5.4-1.8-8.2&#10;&#9;&#9;&#9;c-0.5-2.8-1-5.5-1.3-8.3c-0.2,5.7,0.3,11.3,1.2,17c0.8,5.6,2.1,11.2,3.8,16.7c1.7,5.5,3.9,10.8,6.6,15.9c2.7,5.1,6,10,9.8,14.4&#10;&#9;&#9;&#9;c7.5,9,17.6,15.8,28.6,19.9c5.5,2.1,11.2,3.4,17,4.2c2.9,0.4,5.8,0.6,8.7,0.8c1.4,0.1,3,0.1,4.3,0.1c1.5,0,2.9,0,4.4-0.1&#10;&#9;&#9;&#9;c11.6-0.5,23.4-3.3,33.7-9.2c10.3-5.9,18.8-14.6,24.7-24.7c6-10,9.8-21.1,12.1-32.2c1.1-5.6,1.9-11.3,2.3-16.9&#10;&#9;&#9;&#9;C395.6,209,395.7,203.3,395.2,197.7z" style="fill: rgb(235, 213, 191);"/>
	</g>
<g transform="matrix(1, 0, 0, 1, -148.01990694322012, -40.14099171341563)">
		<path class="st1" d="M380.9,279.9c2,1.1,3.9,2.3,5.6,3.6c1.7,1.3,3.3,2.7,4.5,4.3c1.2,1.6,2,3.3,2,4.9c0,1.7-0.8,3.2-2.1,4.5&#10;&#9;&#9;&#9;c-1.3,1.3-3.1,2.5-4.9,3.5c-2,1-4,1.9-6.1,2.7c-4.2,1.6-8.7,2.8-13.2,3.8c-9.1,1.9-18.6,3-28.1,3.6c-9.5,0.6-19.1,0.7-28.7,0.3&#10;&#9;&#9;&#9;c-9.6-0.4-19.2-1-28.6-2.2c-9.4-1.1-18.8-2.8-27.2-5.7c-4.2-1.5-8-3.5-10.6-6.1c-1.3-1.3-2.1-2.8-2.5-4.5&#10;&#9;&#9;&#9;c-0.4-1.6-0.2-3.3,0.5-4.8c0.7-1.5,2.1-2.9,3.8-4.1c1.7-1.2,3.7-2.2,5.8-3.1c2.1-0.9,4.3-1.6,6.6-2.2c2.3-0.6,4.6-1.1,7-1.6&#10;&#9;&#9;&#9;c-4.9,0.2-9.7,0.9-14.4,2.3c-2.3,0.7-4.6,1.6-6.7,2.8c-2.1,1.2-4,2.7-5.3,4.7c-1.3,2-1.7,4.2-1.4,6.5c0.2,2.1,1.2,4.3,2.7,6.1&#10;&#9;&#9;&#9;c1.5,1.9,3.4,3.4,5.5,4.7c2.1,1.3,4.3,2.4,6.5,3.4c4.5,1.9,9.3,3.3,14.1,4.4c4.8,1.1,9.7,2,14.5,2.7c9.8,1.4,19.6,2.2,29.4,2.6&#10;&#9;&#9;&#9;c9.9,0.3,19.8,0.2,29.6-0.6c9.8-0.9,19.7-2.2,29.2-4.7c4.7-1.3,9.4-2.8,13.8-4.8c2.2-1,4.3-2.1,6.3-3.3c2.1-1.3,4-2.7,5.5-4.5&#10;&#9;&#9;&#9;c1.5-1.8,2.3-4.1,2-6.3c-0.3-2.2-1.6-4.1-3.2-5.7C389.5,283.8,385.3,281.6,380.9,279.9z" style="fill: rgb(235, 213, 191);"/>
	</g>
<g transform="matrix(1, 0, 0, 1, -148.01990694322012, -40.14099171341563)">
		<path class="st2" d="M303.4,211.1c0,0,59.1,2.3,73.7-9.4c14.6-11.7-11.9-15.6-11.9-15.6s-25.2-5.3-65.6-3.2&#10;&#9;&#9;&#9;c-34.4,1.8-58.2,7-57.1,13.5C243.4,202.1,259.2,211.3,303.4,211.1z" style="fill: rgb(132, 102, 58);"/>
	</g>








<g transform="matrix(1, 0, 0, 1, -148.01990694322012, -40.14099171341563)">
		<path class="st1" d="M347,76.3c0.3-0.4,0.8-0.5,0.8-0.4c0.3-0.9,0.7-0.7,0.1-1.1c0.1-0.6,0.9-0.9,0.7-0.2l0.8-1.5l-0.8,0.7&#10;&#9;&#9;&#9;c-0.3-0.5,1.2-1.2,0.9-1.7l-1.2,1.4l-0.1-0.2c-0.1,0.4-0.7,1-1,1.2c-0.1-0.1-0.2-0.1,0-0.4c-1.5,1.7,0.5,0.9-0.6,2.4&#10;&#9;&#9;&#9;C346.7,76.5,346.8,76.4,347,76.3z" style="fill: rgb(235, 213, 191);"/>
	</g><path class="st1" d="M344.4,77.1l0.1,0.9l-1,0.9c0.2,0.1-0.3,0.9,0.4,0.5c0.1-0.1,0.2-0.3,0.3-0.5c0.4,0.4-0.9,1.5-0.2,1.4&#10;&#9;&#9;&#9;c0.6-0.9,0.8-0.9,0.8-1.6c0.7-0.7,1.3-1.2,1.7-1.4c0.1-0.3-0.1-0.4,0-0.7c0,0.1-0.1,0.1-0.1,0.2l-0.7-0.3c0,0.3-0.3,0.5-0.5,0.7&#10;&#9;&#9;&#9;l0.2-1.6c-1,0-1.6,1.4-2.3,1.7C344.2,77.1,343,78,344.4,77.1z" style="fill: rgb(235, 213, 191);" transform="matrix(1, 0, 0, 1, -148.01990694322012, -40.140991713415644)"/><path class="st1" d="M300.4,147.4c0.4,0.1,0.5-0.1,0.6-0.1c0,0-1-0.2-2.1-0.5c-1.1-0.2-2.1-0.5-2.1-0.5c0.1,0.2,1.2,0.7,0.3,0.6&#10;&#9;&#9;&#9;c0.3,0.3,1.4,0.4,1.7,0.2l-0.4,0.2c1.1-0.1,1.5,0.7,0.8,0.7l0.1,0l3.2-0.6C301.5,147.1,301.6,147.6,300.4,147.4z" style="fill: rgb(235, 213, 191);" transform="matrix(1, 0, 0, 1, -148.01990694322012, -40.140991713415644)"/><path class="st1" d="M313.2,195.5c-0.1-0.4-0.1-0.5-0.2-0.4C313,195.3,313.1,195.4,313.2,195.5z" style="fill: rgb(235, 213, 191);" transform="matrix(1, 0, 0, 1, -148.01990694322012, -40.140991713415644)"/><path class="st1" d="M303.2,147.2l1-0.2C303.9,147,303.5,147.1,303.2,147.2z" style="fill: rgb(235, 213, 191);" transform="matrix(1, 0, 0, 1, -148.01990694322012, -40.140991713415644)"/><path class="st1" d="M295,151.7C295,151.7,295,151.7,295,151.7l0.5,0c0,0,0,0,0,0C295.3,151.7,295.2,151.7,295,151.7z" style="fill: rgb(235, 213, 191);" transform="matrix(1, 0, 0, 1, -148.01990694322012, -40.140991713415644)"/><path class="st1" d="M323.5,150.4c0.1,0,0.2,0,0.3,0.1C323.7,150.4,323.6,150.4,323.5,150.4z" style="fill: rgb(235, 213, 191);" transform="matrix(1, 0, 0, 1, -148.01990694322012, -40.140991713415644)"/><path class="st1" d="M281.7,150.1c0,0,0.6,0.1,1.2,0.2c0.6,0.1,1.1,0.2,1.1,0.2c-0.4,0.1,0.6,0.4,0.1,0.4c0.2,0,0.9,0.2,0.8,0.1&#10;&#9;&#9;&#9;l-0.4-0.1c1.4-0.1,0.8-0.5,2.8-0.3c-0.9-0.6-1.5-0.5-2.3-0.5c-0.2,0-0.4-0.1-0.6-0.1c0,0-0.5,0-1.1,0c-0.5,0-1.1,0-1.1,0&#10;&#9;&#9;&#9;L281.7,150.1z" style="fill: rgb(235, 213, 191);" transform="matrix(1, 0, 0, 1, -148.01990694322012, -40.140991713415644)"/><path class="st1" d="M319.4,175.1L319.4,175.1C319.4,175,319.4,175,319.4,175.1z" style="fill: rgb(235, 213, 191);" transform="matrix(1, 0, 0, 1, -148.01990694322012, -40.140991713415644)"/><path class="st1" d="M319.2,174.9l0.1,0.2C319.3,174.9,319.5,174.6,319.2,174.9z" style="fill: rgb(235, 213, 191);" transform="matrix(1, 0, 0, 1, -148.01990694322012, -40.140991713415644)"/><path class="st1" d="M302.8,147.5c0.1-0.1,0.2-0.2,0.4-0.3l-0.7,0.2C302.6,147.4,302.7,147.4,302.8,147.5z" style="fill: rgb(235, 213, 191);" transform="matrix(1, 0, 0, 1, -148.01990694322012, -40.140991713415644)"/><path class="st1" d="M301,148.3l-1.6-0.3l-0.7,0.1C299.3,148.1,300,148.2,301,148.3z" style="fill: rgb(235, 213, 191);" transform="matrix(1, 0, 0, 1, -148.01990694322012, -40.140991713415644)"/><path class="st1" d="M321,149.3c3.5,0.9-1.1,0.3,0.4,0.9c1,0.2,1.5,0,2.1,0.1c-2.9-0.6,0.8-0.8-2-1.5c0.6-0.4,2.3,0,3.2,0.5&#10;&#9;&#9;&#9;c0.4,0.4,0.1,0.4-0.3,0.4c-0.5,0-1.1-0.1-1.3,0.1c1.2,0.3,1,0.1,1.6,0c1.7,0.7,4.1,0.7,4.8,1.9c1.4,0.5,1.5,0.3,2.5,0.4&#10;&#9;&#9;&#9;c0.3-0.2-0.2-0.5-0.8-0.9c-0.6-0.3-1.2-0.6-1.3-1c0.1,0.1,0.2,0.3,0.1,0.3c0,0-0.3-0.2-0.6-0.3c-0.3-0.2-0.6-0.3-0.6-0.3&#10;&#9;&#9;&#9;c1,0.6-0.5,0.4-1.1,0.3c-0.4-0.2-1.3-0.4-1.1-0.5c0,0,0.2,0,0.4,0.1c0.2,0,0.4,0.1,0.4,0.1c-0.8-0.5-2-0.2-2.8-0.8&#10;&#9;&#9;&#9;c0-0.1,0.4-0.1,0.5-0.1c-1.2,0.1-2.1-0.3-3.6-0.4l1.1-0.3c-1.4,0.3-3.8-0.6-5.4-1.3c0.2,0.1,0.5,0.3,0.2,0.3&#10;&#9;&#9;&#9;c-1.1-0.1-1.7-0.7-1.1-0.8c-1.2,0.2-3.6-1.2-5.1-0.9l-6.9,1.4c0.2,0,0.5,0,0.8,0c0.4,0.6,0.7,0.6-0.4,0.8c1,0,0.8-0.5,2.2-0.2&#10;&#9;&#9;&#9;c-0.6,0.1-1,0.6,0.3,1c3.5,0.2,6.2-0.6,9.7-0.5c0,0.4,2.5,0.9,3.8,1.3c-0.7,0.2-1.6,0.1-2.6,0c0.6,0.2,1.6,0.4,2.4,0.7L321,149.3z&#10;&#9;&#9;&#9;" style="fill: rgb(235, 213, 191);" transform="matrix(1, 0, 0, 1, -148.01990694322012, -40.140991713415644)"/><path class="st1" d="M312.5,148.6c0.1,0.1,0.2,0.1,0.2,0.1C312.7,148.7,312.7,148.6,312.5,148.6z" style="fill: rgb(235, 213, 191);" transform="matrix(1, 0, 0, 1, -148.01990694322012, -40.140991713415644)"/><path class="st1" d="M317.7,149.2C317.7,149.3,317.7,149.3,317.7,149.2l0.3,0.1C317.9,149.3,317.8,149.3,317.7,149.2z" style="fill: rgb(235, 213, 191);" transform="matrix(1, 0, 0, 1, -148.01990694322012, -40.140991713415644)"/><path class="st1" d="M303.3,148.4c-0.2,0.1-0.4,0.1-0.6,0.1c0.1,0,0.3,0,0.5,0C303.3,148.5,303.4,148.5,303.3,148.4z" style="fill: rgb(235, 213, 191);" transform="matrix(1, 0, 0, 1, -148.01990694322012, -40.140991713415644)"/><path class="st1" d="M302.9,147.7l0.2-0.1c-0.1,0-0.1-0.1-0.2-0.1C302.8,147.5,302.8,147.6,302.9,147.7z" style="fill: rgb(235, 213, 191);" transform="matrix(1, 0, 0, 1, -148.01990694322012, -40.140991713415644)"/><path class="st1" d="M331.5,157.5l0.3,0.1C331.7,157.5,331.6,157.5,331.5,157.5z" style="fill: rgb(235, 213, 191);" transform="matrix(1, 0, 0, 1, -148.01990694322012, -40.140991713415644)"/><path class="st1" d="M324.6,151.1c-1.2-0.4-0.4,0.5-2.1-0.1l0.5,0.2c-1.3-0.1-3.4-0.8-4.8-1.2c0.3-0.2-0.8-0.5-0.4-0.8&#10;&#9;&#9;&#9;c-1-0.2-2-0.3-2.6-0.1c-0.6-0.3-1.6-0.2-2.3-0.5c0.2,0.3-1.3,0.4,0.6,0.6c-0.2,0-0.1,0.1-0.2,0.1c1.1,0.5,1.7,0.2,2.8,0.4&#10;&#9;&#9;&#9;c0.5,0.3-1.1,0.1-0.6,0.3c1.4,0.1,3.9,1.2,4.2,0.5c1,0.2,1,0.4,1.2,0.6c0.9-0.2,2.3,0.3,3.4,0.7c1.2,0.4,2.1,0.8,2.4,0.4&#10;&#9;&#9;&#9;c-0.6-0.2-1.5-0.5-2.4-0.6L324.6,151.1z" style="fill: rgb(235, 213, 191);" transform="matrix(1, 0, 0, 1, -148.01990694322012, -40.140991713415644)"/><path class="st1" d="M305.2,148.8c0.1,0,0.2,0,0.2,0.1C305.4,148.8,305.3,148.8,305.2,148.8z" style="fill: rgb(235, 213, 191);" transform="matrix(1, 0, 0, 1, -148.01990694322012, -40.140991713415644)"/><path class="st1" d="M292.5,142.5l0.7-0.5c2.5,0.5,3.3,1,5.6,1.5c0.1,0.1-0.2,0.1-0.3,0.1c1.6,0.3,4,1,5.3,1&#10;&#9;&#9;&#9;c0.5,0.1,1.8,0.6,1.2,0.7c0.3,0,0.6,0,0.9,0.1c0,0.3-0.7-0.1-0.8,0.1c0.2,0.1,0.3,0.1,0.4,0.1c-0.5,0.1,0.1,0.9-1.7,0.5&#10;&#9;&#9;&#9;c-0.5-0.7,1.3,0.2,1.1-0.5c-0.6-0.1-0.6,0.1-0.7,0.2c-0.8-0.2-0.7-0.3-0.6-0.5c-0.4,0.1-1.2-0.4-1.8-0.2c-1.5-0.3,0.3-0.4-0.7-0.7&#10;&#9;&#9;&#9;l-0.8,0.5l-1.6-0.5c-2.4-0.3-0.1,1.2-2.9,0.8c0.5-0.2-0.3-1-1.5-1.5c0.7,0.2,2.2,0.1,3.1,0.5c-1.1-0.8,1.8,0.4,1.4-0.3&#10;&#9;&#9;&#9;c-0.8,0.1-1.9-0.1-2.6-0.5l0.3,0c-0.8-0.3-1.8,0.2-2.9-0.4c-0.6-0.1-0.4-0.3-0.2-0.4C292.9,142.7,292.4,142.6,292.5,142.5z&#10;&#9;&#9;&#9; M293.8,142.8l0.8,0.3C294.5,142.9,294.2,142.8,293.8,142.8z" style="fill: rgb(235, 213, 191);" transform="matrix(1, 0, 0, 1, -148.01990694322012, -40.140991713415644)"/><path class="st1" d="M337.4,85.2c0.1,0,0.1-0.1,0.2-0.1C337.6,85.1,337.5,85.1,337.4,85.2z" style="fill: rgb(235, 213, 191);" transform="matrix(1, 0, 0, 1, -148.01990694322012, -40.140991713415644)"/><path class="st1" d="M280.9,127l0.5-0.2C281.2,126.8,281.1,126.9,280.9,127z" style="fill: rgb(235, 213, 191);" transform="matrix(1, 0, 0, 1, -148.01990694322012, -40.140991713415644)"/><path class="st1" d="M289.3,119.9l0.5-0.5C289.6,119.6,289.5,119.8,289.3,119.9z" style="fill: rgb(235, 213, 191);" transform="matrix(1, 0, 0, 1, -148.01990694322012, -40.140991713415644)"/><path class="st1" d="M333.8,89.1L333.8,89.1c0,0,0,0.1-0.1,0.1L333.8,89.1z" style="fill: rgb(235, 213, 191);" transform="matrix(1, 0, 0, 1, -148.01990694322012, -40.140991713415644)"/><path class="st1" d="M308.7,110.9c0.1,0,0.3-0.1,0.4-0.1C309.1,110.7,308.9,110.8,308.7,110.9z" style="fill: rgb(235, 213, 191);" transform="matrix(1, 0, 0, 1, -148.01990694322012, -40.140991713415644)"/><path class="st1" d="M289.2,120C289.3,120,289.3,120,289.2,120l0.1-0.1L289.2,120z" style="fill: rgb(235, 213, 191);" transform="matrix(1, 0, 0, 1, -148.01990694322012, -40.140991713415644)"/><path class="st1" d="M275,128.2c-0.1,0.1-0.2,0.2-0.2,0.2C274.9,128.3,274.9,128.2,275,128.2z" style="fill: rgb(235, 213, 191);" transform="matrix(1, 0, 0, 1, -148.01990694322012, -40.140991713415644)"/><path class="st1" d="M277.2,129.1c-0.1,0.1-0.2,0.2-0.2,0.2L277.2,129.1z" style="fill: rgb(235, 213, 191);" transform="matrix(1, 0, 0, 1, -148.01990694322012, -40.140991713415644)"/><path class="st1" d="M277.4,146.5c0,0,0.8,0.4,0.8,0.4C277.8,146.6,277.6,146.5,277.4,146.5z" style="fill: rgb(235, 213, 191);" transform="matrix(1, 0, 0, 1, -148.01990694322012, -40.140991713415644)"/><path class="st1" d="M275.2,129.9c0,0,0,0.1,0,0.1C275.3,129.9,275.3,129.9,275.2,129.9z" style="fill: rgb(235, 213, 191);" transform="matrix(1, 0, 0, 1, -148.01990694322012, -40.140991713415644)"/><path class="st1" d="M342.1,83.5C342,83.5,342,83.5,342.1,83.5L342.1,83.5L342.1,83.5z" style="fill: rgb(235, 213, 191);" transform="matrix(1, 0, 0, 1, -148.01990694322012, -40.140991713415644)"/><path class="st1" d="M342,81.8c0.1-0.1,0.2-0.3,0.3-0.4C342.2,81.6,342,81.7,342,81.8z" style="fill: rgb(235, 213, 191);" transform="matrix(1, 0, 0, 1, -148.01990694322012, -40.140991713415644)"/><path class="st1" d="M316.6,106.1c0.2,0,0.6-0.2,0.6,0C317.3,105.8,316.9,105.6,316.6,106.1z" style="fill: rgb(235, 213, 191);" transform="matrix(1, 0, 0, 1, -148.01990694322012, -40.140991713415644)"/><path class="st1" d="M344.5,87.9c0-0.1,0-0.2,0-0.4C344.4,87.8,344.4,88,344.5,87.9z" style="fill: rgb(235, 213, 191);" transform="matrix(1, 0, 0, 1, -148.01990694322012, -40.140991713415644)"/><path class="st1" d="M344.5,87.6c0-0.1,0.1-0.2,0.1-0.3C344.5,87.3,344.5,87.5,344.5,87.6z" style="fill: rgb(235, 213, 191);" transform="matrix(1, 0, 0, 1, -148.01990694322012, -40.140991713415644)"/><path class="st1" d="M318.4,112.4c-0.1,0-0.2,0-0.2,0.1C318.3,112.6,318.4,112.5,318.4,112.4z" style="fill: rgb(235, 213, 191);" transform="matrix(1, 0, 0, 1, -148.01990694322012, -40.140991713415644)"/><path class="st1" d="M342.7,81.2c-0.1-0.2,1-2.1-0.3-0.7c-0.5-0.3,0.6-1,0.8-1.5c-0.4,0.2-0.2-0.3-0.5-0.3&#10;&#9;&#9;&#9;c-0.1,0.2-0.2,0.5-0.5,0.8c-0.4,0-0.1-0.5,0.3-0.9c-0.7,0.3,0.1-0.8-0.7-0.3c-1,1.5-1.7,2.6-1.8,3.9c0.6-0.9,1.2-1.8,2-2.4&#10;&#9;&#9;&#9;l0.2,0.5c-1,0.5-1.1,1.1-1.8,1.8l1.7-1.5c1-0.6,0.7,0,0.2,0.6C342.4,81.3,342.6,81.2,342.7,81.2z" style="fill: rgb(235, 213, 191);" transform="matrix(1, 0, 0, 1, -148.01990694322012, -40.140991713415644)"/><path class="st1" d="M345.7,84.3L345.7,84.3c0-0.1,0.1-0.1,0.1-0.1L345.7,84.3z" style="fill: rgb(235, 213, 191);" transform="matrix(1, 0, 0, 1, -148.01990694322012, -40.140991713415644)"/><path class="st1" d="M284.1,139.8l0.3,0C284.2,139.8,284.1,139.8,284.1,139.8z" style="fill: rgb(235, 213, 191);" transform="matrix(1, 0, 0, 1, -148.01990694322012, -40.140991713415644)"/><path class="st1" d="M342.6,84.1L342.6,84.1C342.6,84.2,342.6,84.2,342.6,84.1z" style="fill: rgb(235, 213, 191);" transform="matrix(1, 0, 0, 1, -148.01990694322012, -40.140991713415644)"/><path class="st1" d="M281.7,137.8C281.7,137.8,281.7,137.8,281.7,137.8C281.7,137.8,281.7,137.8,281.7,137.8z" style="fill: rgb(235, 213, 191);" transform="matrix(1, 0, 0, 1, 0, -1.4210854715202004e-14)"/><path class="st1" d="M270.6,140.8C270.5,140.8,270.5,140.8,270.6,140.8C270.6,141,270.6,140.9,270.6,140.8z" style="fill: rgb(235, 213, 191);" transform="matrix(1, 0, 0, 1, -148.01990694322012, -40.140991713415644)"/><path class="st1" d="M281.6,137.8C281.7,137.8,281.7,137.8,281.6,137.8C281.7,137.8,281.6,137.8,281.6,137.8z" style="fill: rgb(235, 213, 191);" transform="matrix(1, 0, 0, 1, -148.01990694322012, -40.140991713415644)"/><path class="st1" d="M293.1,127.3c0,0-0.1,0-0.3,0C292.8,127.3,292.8,127.3,293.1,127.3z" style="fill: rgb(235, 213, 191);" transform="matrix(1, 0, 0, 1, -148.01990694322012, -40.140991713415644)"/><path class="st1" d="M288.3,129c0,0-0.1,0-0.1,0L288.3,129z" style="fill: rgb(235, 213, 191);" transform="matrix(1, 0, 0, 1, -148.01990694322012, -40.140991713415644)"/><path class="st1" d="M314,105.5c-0.2,0.1-0.3,0.2-0.4,0.3C313.7,105.7,313.9,105.6,314,105.5z" style="fill: rgb(235, 213, 191);" transform="matrix(1, 0, 0, 1, -148.01990694322012, -40.140991713415644)"/><path class="st1" d="M281.7,137.8c0.1,0,0.1,0,0.2,0C281.9,137.8,281.8,137.7,281.7,137.8z" style="fill: rgb(235, 213, 191);" transform="matrix(1, 0, 0, 1, -148.01990694322012, -40.140991713415644)"/><path class="st1" d="M298.3,122.2c0,0-0.1,0.1-0.1,0.1C298.2,122.3,298.2,122.3,298.3,122.2L298.3,122.2z" style="fill: rgb(235, 213, 191);" transform="matrix(1, 0, 0, 1, -148.01990694322012, -40.140991713415644)"/><path class="st1" d="M300.8,121.3c0,0.1,0,0.1-0.1,0.2c0.7-0.6,2.4-1.1,2.2-1.6c-0.3,0.1-1.9,0.6-1.8,0.3&#10;&#9;&#9;&#9;c-0.5,0.4-1.6,0.5-1.8,0.7c1.1-0.3,0.4,0.3-0.2,0.7c-0.7,0.2-0.1-0.4-0.7-0.2l-1.3,0.7l1.2-0.5l-0.1,0.5c0,0,0.1-0.1,0.1-0.1&#10;&#9;&#9;&#9;C300.2,121,299,122.6,300.8,121.3z" style="fill: rgb(235, 213, 191);" transform="matrix(1, 0, 0, 1, -148.01990694322012, -40.140991713415644)"/><path class="st1" d="M300.7,121.5c-0.1,0.1-0.2,0.2-0.2,0.2C300.7,121.7,300.7,121.6,300.7,121.5z" style="fill: rgb(235, 213, 191);" transform="matrix(1, 0, 0, 1, -148.01990694322012, -40.140991713415644)"/><path class="st1" d="M309.3,117.7c0.1-0.1,0.2-0.2,0.2-0.3C309.5,117.5,309.4,117.6,309.3,117.7z" style="fill: rgb(235, 213, 191);" transform="matrix(1, 0, 0, 1, -148.01990694322012, -40.140991713415644)"/><path class="st1" d="M297.6,147.8c0-0.1-1.2-0.7-1.3-0.4c0.4,0.1,0.7,0.3,1.1,0.4L297.6,147.8z" style="fill: rgb(235, 213, 191);" transform="matrix(1, 0, 0, 1, -148.01990694322012, -40.140991713415644)"/><path class="st1" d="M325.4,101.8c-0.1,0.1-0.2,0.2-0.3,0.3c0,0,0,0.1,0,0.1C325.2,102.1,325.3,101.9,325.4,101.8z" style="fill: rgb(235, 213, 191);" transform="matrix(1, 0, 0, 1, -148.01990694322012, -40.140991713415644)"/><path class="st1" d="M301.4,119.9c-0.2,0.1-0.2,0.2-0.2,0.3C301.2,120.1,301.3,120,301.4,119.9z" style="fill: rgb(235, 213, 191);" transform="matrix(1, 0, 0, 1, -148.01990694322012, -40.140991713415644)"/><path class="st1" d="M326.3,102.2c0.2-0.1,0.5-0.1,0.7-0.1c0.2-0.2,0.2-0.5,0.4-0.8C327.1,101.6,326.8,101.9,326.3,102.2z" style="fill: rgb(235, 213, 191);" transform="matrix(1, 0, 0, 1, -148.01990694322012, -40.140991713415644)"/><path class="st1" d="M327.4,101.3L327.4,101.3C327.4,101.3,327.4,101.3,327.4,101.3z" style="fill: rgb(235, 213, 191);" transform="matrix(1, 0, 0, 1, 0, -1.4210854715202004e-14)"/><path class="st1" d="M298.3,148.1c0.1,0,0.2,0,0.4,0l-0.2,0l0.9,0.3c0.1,0,0.2,0,0.4,0c-0.1,0-0.1,0-0.2,0l0.3,0.1&#10;&#9;&#9;&#9;c0.8-0.2,2.7,0,3.3-0.1c0.7,0,1.6,0.1,2.1,0.2c-0.5-0.1-1.2-0.2-1,0c0.9,0.4,1.2,1,3.1,0.9l-1-0.2l2.5-0.2&#10;&#9;&#9;&#9;c0.7,0.5-1.3,0.1-1.7,0.3c1.9,0,3,1.3,4,0.8c0,0.4-0.1,1,1.1,1.2c-0.7-0.6,0.8-0.1,0.3-0.7c0.5-0.1,1.2,0.4,1.4,0.2l-0.2,0.1&#10;&#9;&#9;&#9;c1.7,1,2.7,0.3,3.7,0.2c2.4,0.5,3.4,1,5.3,1.5c0,0.3,0.1,1.1,0.9,1.3c0.5-0.2,2.3,0.3,2.7,0c-1.2-0.7-1.3-0.1-2.2-0.3&#10;&#9;&#9;&#9;c-0.4-0.6,0.2-0.4-0.6-1c0.7,0.4,3.5,1,4.1,1.8l-0.3-0.1c0.6,0.4,0.7,0.8,1,1.3c0.2,0.2,0.3,0.4,0.6,0.6c0.3,0.2,0.7,0.4,1.3,0.6&#10;&#9;&#9;&#9;c0,0,1.1,0.4,1.1,0.4c-0.1,0-0.1,0-0.2,0c0.2,0.1,0.3,0.2,0.4,0.3l0.1,0.1l0,0l0,0l0,0l0.1,0l0,0c0,0,0.1,0.1,0.1,0.1&#10;&#9;&#9;&#9;c0.1,0.2,0.2,0.3,0.2,0.4c0.2,0.3,0.4,0.5,1.2,1c-0.1-0.1-0.1,0-0.2-0.1c0.4,0.9,1.6,1.3,2.2,2c-0.2,0.5-0.5,0.1-0.9,0&#10;&#9;&#9;&#9;c0.4,0.7,1,1.4,1.3,2.2c0.4,0.8,0.5,1.7,0.4,2.4c0,0,0,0.1-0.1,0.2c-0.1,0.1-0.2,0.2-0.3,0.4c-0.3,0.2-0.5,0.5-0.5,0.5&#10;&#9;&#9;&#9;c0.2-0.3,0.3-0.7,0.2-1c0-0.3-0.2-0.5-0.3-0.4c-0.1,0.3-0.1,0.4-0.1,0.6c0,0.2-0.1,0.3-0.5,0.7c-0.2-0.3-0.1-0.6-0.3-1.1&#10;&#9;&#9;&#9;c-0.7,0.6-0.5,0.7-0.4,0.8c0.2,0.1,0.3,0.2-0.5,0.4c-0.4,0.4-0.4,0.8-0.2,1c0,0-0.3,0.1-0.6,0.2c-0.3,0.1-0.6,0.2-0.6,0.2&#10;&#9;&#9;&#9;c0.2,0.3-0.9,1.1-1.5,1.6c0,0.2,0.9-0.1,1.1-0.4c0.2,0.2-0.5,0.9-1,1.2c-0.8-0.5-3.1,2.2-3.3,1.1c-1,0.8-2.1,1.8-3.1,2.8&#10;&#9;&#9;&#9;c-0.5,0.5-0.9,1-1.3,1.4c-0.2,0.2-0.3,0.4-0.5,0.6c-0.1,0.1-0.1,0.2-0.2,0.3l0,0.1l0,0l0,0l0,0l0,0c0,0-0.1,0.1,0.1-0.1l0,0l0,0&#10;&#9;&#9;&#9;c0,0,0,0.1-0.1,0.1c-0.6,0.3-1.3,1.1-1.2,0.4c-1.2,1.5-1,2.7-2.3,4.1c-0.2,0.1,0.5-0.7,0.2-0.8c-0.4,1.1-1.7,1.7-2.4,3.4&#10;&#9;&#9;&#9;c0.1-0.3,0-0.4-0.1-0.5c0.2,0-0.1,0.8-0.2,1.2c-0.2,0.2,0.1-0.3-0.1-0.3c-1.1,1.5-1.6,3-1.9,4.5c-0.3,1.5-0.4,3-0.6,4.6&#10;&#9;&#9;&#9;c0.1-0.9-0.4-1.4-0.7-1.4c0,0-0.1,0.2-0.1,0.5c0,0.2-0.1,0.5-0.1,0.5c0.3,0.4,0.2,1.1,0.4,1.7c-0.1,0.1-0.3,0.3-0.4,0.1&#10;&#9;&#9;&#9;c-0.2,0.5-0.2,0.9-0.1,1.3c0.1,0.4,0.2,0.8,0.5,1.1c0.2,0.4,0.5,0.7,0.6,1.1c0.2,0.4,0.4,0.9,0.5,1.5c0,0-0.5-0.6-1-1.3&#10;&#9;&#9;&#9;c-0.2-0.3-0.4-0.6-0.6-0.9c-0.2-0.2-0.3-0.4-0.3-0.4l-0.3,0.7c0,0-0.2-0.3-0.4-0.6c-0.2-0.3-0.4-0.6-0.4-0.6&#10;&#9;&#9;&#9;c-0.3,0.8,0.7,1.4,0.2,1.5c-0.2-0.1-0.2-0.5-0.4-0.5c-0.1,0.8,0.3,0.8,0.5,1.3c-0.4-0.3-0.6-0.7-0.8-1.2c-0.1-0.3-0.2-0.5-0.3-0.8&#10;&#9;&#9;&#9;c-0.1-0.3-0.1-0.5-0.2-0.8c-0.1-0.6-0.2-1.1-0.2-1.7c0-0.5,0-1,0-1.4c0-0.3,0.2,0.2,0.3,0.3c0.1-0.6,0.4-1,0.4-1.8&#10;&#9;&#9;&#9;c-0.3-0.5-0.4,0.3-0.5,0.7c-0.4-0.1-0.3-0.3-0.2-0.7c0.3,0,0.4-0.6,0.7-1.3c0.3-0.6,0.5-1.3,0.9-1.5c0.7-2.3-1.4,0.1-0.3-2.1&#10;&#9;&#9;&#9;l0.8-0.5c0.2-1.4,0.7-3.1,1.7-4.4l-0.2,0.3c0.1,0.3,0.4,0,0.6-0.1c0.8-0.9,0.9-2.1,1.8-2.5c0.3-1.3,1.3-3.4,2.1-4.7&#10;&#9;&#9;&#9;c0.9,0-0.8,1.9-0.8,2.6l0.9-1.1c-0.6,0.7-0.5,1.1-0.5,1.7c0.9-0.9,0.6-1.5,1.2-2.5c0.1,0.1,0.1,0.1,0.2,0c0.1,0,0.1-0.1,0.2-0.1&#10;&#9;&#9;&#9;l0,0l0,0l0.1-0.1l0,0l0.1-0.1c0,0,0.1-0.1,0.1-0.1l-0.3-0.3c0,0,0.1,0,0.3-0.1c0,0,0.3-0.4,0.7-0.9c0.4-0.5,0.8-0.9,0.8-0.9&#10;&#9;&#9;&#9;c-0.5,0.2-0.9,0-1.3,0.5c0.4,0,0,0.4-0.4,0.8c0.1-0.5-0.6,0.3-0.8,0.1c0.4-0.4,0.9-0.9,1.3-1.3c0.5-0.4,0.8-0.9,1.1-1.1l0.5,0.1&#10;&#9;&#9;&#9;c1-0.7,1.8-1.6,2.6-2l0,0.3c1.2-0.7,2.2-1.7,3.5-2.1c0.7-1,1.6-2,1.9-2.8c0-0.3,0.6-0.6,1.1-0.9c0.4-0.3,0.6-0.4,0.2-0.5&#10;&#9;&#9;&#9;c0,0,0.5,0.1,0.6,0.3c0.1-0.1,0-0.2-0.1-0.3c-0.1-0.1-0.1-0.1,0.2-0.1c-0.1,0.2,0,0.2,0.2,0.2c0.2,0,0.4-0.1,0.5,0&#10;&#9;&#9;&#9;c0-0.3-0.2-0.7-0.5-0.9c0.1,0.3-0.1,0.3-0.3,0.3c-0.2,0-0.3,0-0.1,0.2c-0.5-0.2-1.2-0.9-1.8-1.8c0.2-0.1,0.2-0.3,0-0.6l-0.5-0.1&#10;&#9;&#9;&#9;c-0.3-0.4,1.1,0.5,0.4-0.3c-0.3-0.1-0.7-0.3-1-0.6l0,0l0,0l0,0v0c0.3,0.3,0.1,0.1,0.2,0.1l0,0l0,0l-0.1-0.1l-0.1-0.1l-0.3-0.2&#10;&#9;&#9;&#9;c-0.2-0.1-0.4-0.3-0.5-0.4c-0.3-0.2-0.5-0.3-0.8-0.4c-0.2-0.1-0.6-0.1-0.9,0.1c-0.3-0.3,0.2-0.2,0.6-0.2c0.2,0,0.3,0.1,0.4,0&#10;&#9;&#9;&#9;c0.1,0,0.1-0.1-0.1-0.4c0.5,0,0.7,0.2,1,0.4c0.3,0.2,0.7,0.5,1,0.4c-0.8-0.4,0.1-0.5-0.3-0.8l-0.9-0.2l0.1,0.1&#10;&#9;&#9;&#9;c-1.4-0.3-3.6-1.5-5.8-2.1c-2-0.1-3.5,0.1-5.7-0.5c0.8-0.1-1.7-0.7-0.1-0.8c-0.9-0.5-2.1-0.5-2.2-0.3c0.9,0.3,0.3,0.1,1,0.4&#10;&#9;&#9;&#9;c-0.6,0.1-1.8-0.2-2.2-0.5c0.2,0.1,0.2,0,0.2-0.1c-1-0.4-0.6,0.1-1.5,0c-0.1-0.4-1.7-0.5-2.4-0.8l-1.2,0.2c0.7-0.2-1-0.3-1.1-0.7&#10;&#9;&#9;&#9;c-0.9,0.1-1.7,0.3-2.8,0c0.6-0.1-1-0.5-0.9-0.8c-1.9-0.7-3.7,0.1-5.5-0.8c0.1-0.1,0.6-0.2,0-0.4c-0.5,0-1.3-0.2-1.8-0.3l0,0l0,0&#10;&#9;&#9;&#9;c-0.2,0-0.4,0-0.4,0c-1,0.1-1.5,0.3-3.3,0.1c0,0.4,1.4,0.6,2.1,0.6l0.7-0.2c0.3,0.7,1.5,0.3,1.8,0.5c-1.2,0.4-4-0.4-6-0.5&#10;&#9;&#9;&#9;c0.8,0.8,3.1,1.5,5.1,1.9l-0.8-0.4l1,0.2l-0.9-0.6c1,0.3,1.8,0.4,2.7,0.6c-1-0.2-1.2-0.8-0.7-0.6c1,0.6,1.3,0,2.2,0.3&#10;&#9;&#9;&#9;c-0.5-0.1-1.1-0.3-0.6-0.4c1.6,0.8,2.1,0.6,3.5,1.4c0-0.6,2,0.4,2.4-0.1l-0.7-0.2l1.7,0c1.2,0.8-1.4,0.2,0.6,1&#10;&#9;&#9;&#9;c1.9,0.5,2.1-0.2,3.6,0.1c-0.6,0.2-1.9,0.3-3.2,0l0.7,0.3c-0.5,0.1-2.2-0.3-3-0.5c1.6-0.1-0.6-0.3-1.2-0.7&#10;&#9;&#9;&#9;c-0.2,0.3,0.7,0.5-0.5,0.5c1,0.2,1.2,0.2,2.4,0.6c-2.7-0.7-2.9,0.7-5.3-0.2c1.2,0.1-0.2-0.6-0.3-0.8c-0.6-0.1-1.7-0.2-2.2-0.3&#10;&#9;&#9;&#9;l0.2,0.6c-1.6-0.1-1.6-1.3-3.5-1.2c-0.3,0.2,1.5,0.5,1.1,0.4c-2.5-0.3-3-1.3-4.9-2.2c-0.2,0.1-0.3,0.4-1.2,0.5&#10;&#9;&#9;&#9;c0.4-0.2-0.1-0.5,0.8-0.5c-0.6-0.3-1.6-0.3-2.3-0.4c1.4,0.6-0.8,0.2-1.2,0.3c-0.7-0.3,0.4-0.2,0.9-0.1c-0.6-0.3-1.1-0.9-1.7-0.6&#10;&#9;&#9;&#9;c0.2-0.3,2.1-0.2,3.3,0L288,151c0.6,0,0.7,0.1,1.4,0.3c-0.6-0.4-0.4-0.7-0.1-0.8c0.1,0.1-0.1,0.1,0,0.1c0.6,0.2,1,0.3,1,0.1&#10;&#9;&#9;&#9;c0.7-0.3-0.7-0.5-1-0.8c-0.3-0.1-0.6-0.1-0.9-0.2c0,0-0.9,0.1-1.9,0.2c-1,0-1.9,0.1-1.9,0.1c-1.4-0.3-1.9-0.9-2.7-1.5l-0.5,0.2&#10;&#9;&#9;&#9;c-1.2-0.5-2.2-1.2-1.1-1.2c0,0.1,0.1,0.2,0.4,0.3c0.1,0,0.2,0,0.2,0c0,0,0.1,0,0.1,0c-1.3-0.5-2.1-0.8-2.2-0.9&#10;&#9;&#9;&#9;c2.5,0.6,0.6-0.5,1.5-0.9c0,0-0.1-0.1-0.3-0.1c-0.2-0.1-0.5-0.2-0.7-0.3c-0.5-0.3-1.1-0.5-1.1-0.5c1,0.9-0.2,0.3-0.8,0.1&#10;&#9;&#9;&#9;c0.1-0.2-0.3-0.5-0.8-0.8c-0.2-0.2-0.5-0.3-0.8-0.5c-0.2-0.2-0.5-0.4-0.6-0.5l0.1,0c-0.2-0.3-0.6-0.7-1-1.1&#10;&#9;&#9;&#9;c-0.4-0.4-0.8-0.9-1.1-1.2c-0.1,0.1-1.5-0.7-2.3-1.2c0.7,1.6,0,0.8-0.2,1c-0.1-0.2-0.2-0.5-0.3-0.5c-0.3-0.2,0,0.4-0.1,0.5&#10;&#9;&#9;&#9;c1.2,1.8,2.8,3.2,3.9,3.3c-0.2-0.6-1-0.5-1.3-1.1c1,0.5,1.8,1.4,3.1,2.3l0.1,0.5c0,0,0.1,0.1,0.2,0.1c0.1,0.1,0.3,0.1,0.5,0.2&#10;&#9;&#9;&#9;c0.4,0.2,0.7,0.3,0.7,0.3c-0.7-0.2-0.6,0.3-2.1-0.6c-0.1,0.4,1.4,0.9,2.2,1.5l0.8-0.1c-0.4,0.1,1.5,1.1-0.1,0.7&#10;&#9;&#9;&#9;c0,0-0.2-0.1-0.4-0.1c-0.2-0.1-0.5-0.2-0.8-0.3c-0.6-0.3-1.2-0.5-1.2-0.5l0.4,0.6c0,0-0.5-0.3-1-0.5c-0.2-0.1-0.5-0.3-0.7-0.4&#10;&#9;&#9;&#9;c-0.2-0.1-0.3-0.2-0.3-0.2l0.6,0.2c-1.6-1-1.6-1.3-1.6-1.6c0-0.2,0-0.3-0.2-0.5c-0.1-0.1-0.3-0.3-0.5-0.5&#10;&#9;&#9;&#9;c-0.2-0.2-0.5-0.4-0.9-0.8c-0.6-0.3-1.2-0.7-1.7-1.3c-0.5-0.6-1-1.4-1.2-2.6c0.7,1.5,0.5,0.1,1.1,0.6c-0.2-0.8-0.4-1.3-0.7-1.7&#10;&#9;&#9;&#9;c-0.2-0.4-0.5-0.7-0.7-1.1c0.3-0.4,0.5-0.7,0.7,0.7c0.6,0.1,0-1.1,0.1-1.7c0,0.2,0,0.4,0.1,0.5c0-0.5,0.1-0.9,0.2-1&#10;&#9;&#9;&#9;c0-0.3,0-0.5,0.1-0.7c0-0.1,0-0.2,0.1-0.3l0.1-0.2c0.1-0.3,0.2-0.6,0.3-0.8c0.1-0.1,0.1-0.3,0.2-0.4c0-0.1,0.1-0.2,0.1-0.2&#10;&#9;&#9;&#9;c0.1-0.2,0.2-0.3,0.3-0.4c0.2-0.3,0.3-0.5,0.5-0.7c0.1-0.2,0.2-0.4,0.3-0.5c0.2-0.4,0.3-0.6,0.5-0.8c0.1-0.2,0.2-0.5,0.3-0.7&#10;&#9;&#9;&#9;c0.4-0.9,1.1-1.8,3.3-2.7l0,0.3c2.2-1.7,3.8-2.3,5.9-3.6l2.2-0.4c-0.3,0.3-1,1.2-0.3,1.2c-1.3,0-2,0.6-3.2,0.9&#10;&#9;&#9;&#9;c0,0.2,0.5,0.1,0.7,0c-0.6,0.3-1,0.2-1.7,0.7c0.1,0.1,1-0.2,0.5,0.1l-1.3,0.3c-1.2,0.9,0.1,1.1-1.6,1.9c0-0.4,0.2-1.2,0.8-1.6&#10;&#9;&#9;&#9;c-0.8,0.4,0.8-0.7,0-0.5c-0.6,1-1.5,1-2.6,2.1c0.1-0.2,0.1-0.3,0.4-0.5c0,0-0.6,0.3-1.1,0.6c-0.6,0.3-1.1,0.7-1.1,0.7&#10;&#9;&#9;&#9;c0.4-0.1,0,0.3-0.4,0.7c-0.2,0.2-0.4,0.5-0.5,0.7c-0.1,0.2-0.2,0.4,0,0.4c1.2-0.9,1.6-1.2,2-1.5c0.4-0.3,0.9-0.6,2.2-1.3&#10;&#9;&#9;&#9;c-0.6,0.5-1.1,1.4-1.2,2c0,0-0.1,0-0.2,0.1c0,0.6,0.5,0.4,1.1,0.9c0.6-1.1,1.7-1.3,2.7-2.2c-0.1-0.5-1.1,0-1.7,0.5l0.9-0.9&#10;&#9;&#9;&#9;l-0.1,0.3c0,0,0.7-0.4,1.5-0.8c0.7-0.4,1.5-0.8,1.5-0.8c-0.5,0.3-0.5,0.6-0.7,0.9c0.4-0.2,0.8-0.3,1.3-0.4&#10;&#9;&#9;&#9;c-0.4-0.3-0.5-0.5-0.2-0.7c1.9-0.9,3.2-1.2,4.2-1.2c0.1,0,0.1-0.1,0.2-0.1c-0.6-0.2,0.8-1.3,1.1-1.9c0.3,0.3,1.1-0.3,1.8-0.4&#10;&#9;&#9;&#9;c-0.1-0.5-0.9-0.9-1.8-0.9c-0.9,1-0.4,0.7-0.5,1.5l-1.7,1.4l0.2-0.5c-1.1,0.4-1.7,1.3-2,0.9c0.3-0.6,1.3-0.8,1.6-1.4l-0.8,0.2&#10;&#9;&#9;&#9;c0.8-1,0.9,0.1,2.1-1c-0.8-0.1,0.1-0.1,0.5-0.6c-0.7,0-2.4,1.4-2.5,0.6c0.5-0.6,3.1-0.6,3.5-1.7l0,0.1c1.5-0.7,1.7-1.2,2.1-1.7&#10;&#9;&#9;&#9;c0.8-0.1,1.4-0.8,2-1.2l0.1,0.2l0.9-0.5c-0.2,0.5-1.1,0.5-1.9,1l0.4,0.3c-1.2,0.1-1.4,1-1.9,1.6c0.8-0.8,3-1.4,2.7-2.1l0.9,0&#10;&#9;&#9;&#9;l0.2-0.3c0.7,0,0.5,0.6-0.4,1.1c-0.2,0-0.3,0-0.4-0.1c-0.3,0.4-0.5,0.8-1.6,1.2l0.4-0.4c-1.3,0.6-2.4,1.3-2.6,1.9&#10;&#9;&#9;&#9;c2-0.8,3.9-1.7,5.6-2.6c-0.1-1,0.2-1.7-0.1-2.5c1.1-0.7,2.6-1.6,3.8-1.8l0,0.2c0.6-0.2,1-0.4,1.3-0.7c0.7-0.1-0.1,0.5,0.4,0.4&#10;&#9;&#9;&#9;l1.4-1c0.2,0.3-1.2,1-1.8,1.4c0.1-0.1,0.3-0.3,0.2-0.3c-0.9,0.3-1.9,1.5-2.6,1.2c-0.3,0.3,0.5-0.7-0.8-0.1c-1,0.3-1,0.8-0.9,1&#10;&#9;&#9;&#9;c0.1,0.2,1.6-0.4,1.3,0c0.7-0.4,0.7-0.7,1.7-1c-0.6,0.3-1.3,1.1-1.8,1c-1.1,1-0.2,1.7,0.5,1.4c-0.4-0.2,2.2-1.5,0.1-1&#10;&#9;&#9;&#9;c0.5-0.7,1.9-1.4,2.7-2.1l0,0.1l1.2-0.7c-0.1,0.2-0.4,0.4-0.3,0.6c0,0,0.3-0.3,0.6-0.7c0.3-0.3,0.6-0.6,0.6-0.6&#10;&#9;&#9;&#9;c-0.6,0.8,0.8-0.1,1.2-0.2c-0.1-0.3,0.2-0.8-0.4-0.7c-0.7,0.1-0.2,0.3-0.8,0.6c0,0,0.5-0.8,0.4-0.8l0.1,0c0,0,0-0.1,0.1-0.3&#10;&#9;&#9;&#9;c0-0.1,0-0.2,0-0.2c0,0,0.1,0,0.1,0c0,0,0,0,0,0l0,0l0,0l0.1,0.1l0.1,0.1c0.8,0.7,1.2,1.1,1.4,1.2c0.4,0.3-0.3-0.2-0.8-0.7&#10;&#9;&#9;&#9;c-0.2-0.2-0.5-0.5-0.4-0.4c0,0,0,0,0,0c0,0,0,0,0,0c0.1,0.1,0.2,0.1,0.2,0.2c0.2,0.2,0.5,0.4,0.9,0.7c0.2,0.2,0.4,0.3,0.7,0.5&#10;&#9;&#9;&#9;c0.1,0.1,0.3,0.2,0.4,0.3c0.1,0.1,0.1,0.1,0.2,0.2l0.1,0.1l0.1,0l0,0l0,0c-5.2-4.3-1.4-1.2-2.6-2.1l0,0c0.1-0.1,0.2-0.2,0.3-0.4&#10;&#9;&#9;&#9;l-0.7-0.3c1.7-1.1,4.4-2.2,5.3-3.3c0,0.5,0.3,0.9,1,0.8c-0.6,0.3-1.6,1-2.3,1.6c-0.2,0,0.3-1.1,1.2-1.6c-1.2-0.4-1.5,1.8-2.4,1.2&#10;&#9;&#9;&#9;c-1.1,0.6-1.3,1-1.5,1.4c-0.1,0.2-0.2,0.4-0.4,0.6c0,0-0.1,0.1-0.2,0.1l0,0l0,0l0,0l0,0c-0.5-0.4,4.1,3.4,2.2,1.8l0,0l0,0&#10;&#9;&#9;&#9;l-0.1-0.1c-0.5-0.3-0.9-0.7-1.4-1.1c-0.2-0.2-0.5-0.4-0.7-0.6l0,0c0,0,0,0,0,0c-0.1,0-0.2,0-0.2,0c0.3,0.3-0.3,0.4-0.1,0.7&#10;&#9;&#9;&#9;c0.2,0.1,0.5,0,0.7-0.1c0,0,0.1,0,0.2-0.1c0,0,0.1-0.1,0.1-0.1c0,0,0,0,0,0c0.5,0.4,1,0.8,1.5,1.1l0.1,0.1l0,0&#10;&#9;&#9;&#9;c0.3,0.3-2.9-2.5-1.5-1.3l0,0l0,0l0,0l0,0l0.1,0l0.1-0.1c0.6-0.5,1.2-1.1,1.9-1.4c-0.1,0.1-0.2,0.3-0.2,0.4&#10;&#9;&#9;&#9;c0.9-0.5,1.1-0.8,1.6-1.3l-0.1,0c0.6-1,0.9-0.2,1.6-0.5c0.2-0.2,1.1-0.7,0.7-0.8l1.4-0.5l-0.5-0.3c0.6-0.4,0.9-0.3,1.1-0.9&#10;&#9;&#9;&#9;l-0.3-0.3c0,0-0.4,0.2-0.7,0.5c-0.4,0.2-0.8,0.5-0.8,0.5c0.6-0.6-0.1-0.4,0.5-1.1c-0.4,1,0.8-0.3,1.2-0.1l0.3-0.6l0,0.2&#10;&#9;&#9;&#9;c0.6-0.2,0.4-0.5,0.9-0.9c-0.8,0.3-1.4,0.4-1.9,1.2c0.3-0.6,1.1-1.6,1.4-1.8c0.4-0.6,1.1-0.7,1.6-1.1c-0.8,0.9,1.5,0.6-0.8,2&#10;&#9;&#9;&#9;c0-0.1,0.1-0.2,0.2-0.2c-0.7-0.1-1.2,1-1.4,1.5c0.4,0.1,0,0.5,0.9,0c-0.4,0.1,0-1,1-1.4l0.5,0.5l1.2-0.8l-0.1,0.1&#10;&#9;&#9;&#9;c0.8-0.1,1.1-1,2.1-1.4c0.3-0.6,2.5-2.3,1-1.9c1-0.3,1.1-1.2,1.7-1.8l-1.1,0.6c0.6-1.2,0.6-0.8,0.7-2c0.3,0,0.6,0,0.6,0.2&#10;&#9;&#9;&#9;c0.7-0.6,1.6-1.3,2.3-2c0.7-0.7,1.3-1.4,1.4-2c1-0.9,1.9-0.6,2.9-2c0.2-0.3-0.8-0.1,0.2-0.9c0.1,0-0.3,1.1,0.6,0.1&#10;&#9;&#9;&#9;c0.2-1,1.8-1.5,2.3-2.6c0.6-0.4,1.4-1.2,1.6-0.8c-0.8,0.7-1.7,1.8-1.7,2.1c-0.1-0.2-0.7,0.4-0.4-0.3c-1.4,1-0.4,0.9-1.6,1.8&#10;&#9;&#9;&#9;c0.1,0.2,1-0.3,1-0.6c0.6,0.3-1.7,2.1-0.2,1.6c1.1-1,0.3-2,1.8-2.6c0,0.6-0.9,1-0.8,1.8l1-0.7l0.1-0.8l0,0.1&#10;&#9;&#9;&#9;c1.8-1.1,0.6-1.6,1.5-3c-1.1,0.5-0.8-0.7-1.6-0.3c0.7-0.9,1.4-1.4,1.9-1.1c-1,1.8,0.5,0.4-0.3,2.1c0.4-0.1,0.5,0.8,1.4,0&#10;&#9;&#9;&#9;c0.5-1.2-0.7,0,0-1c0.1,0,0.2-0.1,0.3,0c0.1-0.6,0.6-0.4,0.8-1.2l0,0.2c0.9-0.5,0.3-0.9,1.2-1.3c-0.6,0,0-0.6,0.1-1.1&#10;&#9;&#9;&#9;c-0.7,0.5-1.6,0.5-2.6,1.6c0.2,0.3,0.5,0.3,0.2,0.9c0,0,0.2-0.2,0.3-0.4c0.2-0.2,0.3-0.4,0.3-0.4c-0.1,0.2-0.1,0.4-0.2,0.5&#10;&#9;&#9;&#9;l-0.8,0.6c0.6-1-0.1-0.8-0.1-1.4c0.9-0.8,0.5-0.7,1.1-1.2c0.4,0.3,2.3-1.2,3.5-1.9c-0.2,0.1-0.3,0.3-0.4,0.4&#10;&#9;&#9;&#9;c-0.3,0.9,0.8-0.3,1-0.2l0.2-0.6c-0.1,0.1-0.1,0.3,0.2,0.1c0.5-0.7,0-0.9,0.5-1.7c0.3,0.1,0.2,0.9,0.7,0.5c0.4,0,1.4-0.2,2-1.2&#10;&#9;&#9;&#9;c0-0.1,0.1-0.4,0.3-0.7c0,0-0.1,0.1,0,0.1l0.8-0.5c0,0.8-1.2,0.9-1.2,1.7l0.4,0.3c-0.4,0.4-0.7,1.1-0.7,1.4&#10;&#9;&#9;&#9;c0.6-0.6,0.6-0.8,1.2-1.5c0.4,0,0.1,0.6,0.1,0.7l-0.2-0.2c-1.1,0.6-0.7,1.5-1.7,2.4c-0.2,0.1-0.1,0-0.2,0&#10;&#9;&#9;&#9;c-0.3,1.1-1.7,1.6-1.8,2.7l0-0.4c-0.3,0.6-0.8,2-1.5,3.2l0.2,0.1c0.2-0.1-0.2,0.3-0.4,0.5l0,0c-0.3,0.6-0.6,1.3-0.9,1.8&#10;&#9;&#9;&#9;c0.2-0.1,0.5-0.2,0.7-0.4c0-0.3,1.1-1.2,0.5-1.3c0.7-0.3,1-1.2,1.5-1.5c-0.8,0.5,0-0.7-0.2-0.9c0.5-0.1,0.8-0.9,1.1-0.6&#10;&#9;&#9;&#9;c0.2-0.1-0.5,0.2-0.5,0.5c-0.2,0.8,1.4-1,1,0c0.7-1.2,2-2.4,2.6-3.7l-0.7,0.5c0.5-0.4,1.4-1.6,1.7-1.6c-0.3,0.4-0.6,0.8-1,1.3&#10;&#9;&#9;&#9;c0.4,0.2,1-1.1,1.3-1l0.4-1.7l-0.5,0.6c0-0.5,1.4-1.5,2.3-2.4c0.2,0.8-1.2,1.3-1.7,2.4c-0.4,0.8,0.9-0.1,0.5,0.6&#10;&#9;&#9;&#9;c0.3-0.1,0.6-0.5,0.7-0.8l0.3-0.2c0,0.8-1.2,2.1-1.5,3.2c0-0.1,0-0.2,0-0.3c-0.8,0.5-1.4,1.2-1.8,1.9c0.5-0.2,0.5-0.4,0.6-0.7&#10;&#9;&#9;&#9;c0.2,0-0.3,0.7-0.4,1c0.7-0.5,0.4,0.1,0.8-0.3c-0.2,0.5-0.5,0.7-1,1.2c-0.4,0.1-0.1-0.3-0.4-0.4c-0.3,0.6-1.1,0.4-1.4,1.3&#10;&#9;&#9;&#9;c1-0.9,0.4,0.6,0.2,1l0.2-0.1c0,0.5-0.2,0.7-0.6,0.8c0.2-0.5,0.6-0.8,0.2-0.8c-0.2,0.3-0.4,0.5-0.6,0.9l0-0.4c0,0-0.3,0.3-0.6,0.6&#10;&#9;&#9;&#9;c-0.3,0.3-0.6,0.6-0.6,0.6c0.1,0.3,0.2,0.9,0.4,1.3c-0.5,0.2-0.7,0.7-0.9,1l0-0.2c-0.8,0.4-1.7,1.8-1.6,2&#10;&#9;&#9;&#9;c-0.6,0.3,1.1-3.7-1.3-0.8c-1,1.1,0.1,1.1-0.2,1.9c0,0,0-0.1-0.2,0c-0.5,0.4-0.3,0.6-0.5,1.1c0.4-0.2,0.8-0.6,0.8-0.8&#10;&#9;&#9;&#9;c0.2,0.3-1,0.9-1.1,1.4c0-0.7-1.1,0.8-1,0.3c-1.2,0.7-1.8,1.9-2,2.6c-1.2,0.2-1,1.1-2.4,1.9c0.2-0.1,0.4-0.5,0.7-0.6&#10;&#9;&#9;&#9;c0.2-0.8-1.3,0.9-0.7-0.2c-0.1,0.2,0.2,0.1,0.3-0.1c0.3-0.4,0.5-0.8,0.2-0.8c0,0-0.3,0.1-0.6,0.3c-0.3,0.1-0.6,0.3-0.6,0.3&#10;&#9;&#9;&#9;l0.2-0.3l-1.8,0.9c0,0.1,0.3,0,0.4,0c-1.7,1.2-3.2,3-4.6,4.1c0.8,0.9-3.1,3.2-3.6,4.6c0-0.5-0.3-1-0.7-1c0.2-0.2,0.3-1,1-1.4&#10;&#9;&#9;&#9;c0.3,0,1.2-0.4,0.9,0.1c1.5-1.4-0.7-0.1-0.6-0.8c-1.7,1.5-2.2,2.8-3.1,3.9l-0.1-0.1c0,0-0.2,0.2-0.3,0.4c-0.2,0.2-0.3,0.4-0.3,0.4&#10;&#9;&#9;&#9;c0.8-0.5,1.3,0,0.2,0.5l0.1-0.1c-0.8,0.2-1.6,1.2-2.4,1.8l-0.2,0.7c-0.9,0.6-1.5,0.1-2.1,0c-0.7,0.5-1.1,0.9-1.4,1.4&#10;&#9;&#9;&#9;c-0.1,0.1-0.2,0.3-0.2,0.3l-0.5,0.5c-0.2,0.3-0.5,0.5-0.7,0.7c-0.8,0.1-3.1,1.2-2.1,0.3c-1.2,0.9,0.2,2.1-2.8,2.5l0.4-0.5&#10;&#9;&#9;&#9;c-2.2,1.2-5,3.2-6.2,3.4c0.1-1.2-3.5,0.5-4.5-0.1c0.3,0.1-0.5,0.6-0.5,0.8c-0.3,0-0.6,0.1-0.8,0.4c1-0.3,0.1,1.1,1.5,0&#10;&#9;&#9;&#9;c-0.3,1-1,1.9-2.8,2.8l-0.3-0.3l1.5-0.6c-0.4-0.2,0.4-0.5,0.6-0.8c-2.8,1.2-0.4-1-3,0.5c-0.1,0.4,0,0.2-0.6,0.6&#10;&#9;&#9;&#9;c0.3-0.2,0.2-0.4-0.4-0.2l-0.3,0.5c-1.4-0.1,1.2-1.2,0.1-1.1c0.8-0.8,2.5-1.9,1.8-2.1c-1.8,0.7-0.8,1.6-2.8,2.3l-0.4-0.1&#10;&#9;&#9;&#9;c-0.5,0.5-0.3,0.8-0.5,1.2c-0.1-0.1-0.4-0.1-0.8,0.1c-0.6,1-1.2,1.4-1.7,2.4c2.1-1.7,2.4-0.9,4.7-2.6c-0.3,0.4-2,1.4-1.7,2&#10;&#9;&#9;&#9;l-0.3-0.3c-0.7,0.6-1.3,1.3-2.4,1.7l0.4-0.5c-1.1,1-2.7,0.8-3,2c0.3-0.2,0.6-0.4,0.8-0.6c-0.5,0.5-1.2,1-1.8,1.4&#10;&#9;&#9;&#9;c0,0-0.1,0.3-0.1,0.6c0,0.1,0.1,0.2,0.1,0.3c0.1,0,0.1,0,0.1,0c-0.1,0-0.1-0.1-0.1-0.1c0,0-0.1,0,0-0.2c0-0.2-0.1-0.4-0.3-0.2&#10;&#9;&#9;&#9;c0-0.1,0-0.1,0-0.2l0-0.1l0-0.2c0-0.3,0-0.5,0-0.7l-0.2-0.6l0.2,0.9c0,0.2,0.2,0.4,0.4,0.5c0.1,0.1,0.2,0.1,0.2,0.2&#10;&#9;&#9;&#9;c0.1,0.1,0.2,0.1,0.2,0.2c-0.2,0.3-0.3,0.2-0.4,0c-0.1-0.1-0.2-0.2-0.3-0.3c-0.1-0.1-0.2-0.2-0.4-0.2c-0.1,1,0.7,1.9,1.5,2.2&#10;&#9;&#9;&#9;c0-0.2,0-0.3,0.1-0.4c-0.1,0.1,0.1,0.4,0.3,0.6l0.4,0c0.1,0.4-0.1,0.5-0.5,0.3c0.1,0.2,0.4,0.3,0.7,0.4c0.3,0.1,0.5,0.2,0.5,0.5&#10;&#9;&#9;&#9;c-1-0.3-1.4-1.1-1.8-1.2c0.1,0.1,0.3,0.2,0.4,0.3c0.1,0.1,0.2,0.2,0.3,0.3c0.1,0.2,0.2,0.4,0.3,0.6c0.1,0.2,0.2,0.5,0.5,0.7&#10;&#9;&#9;&#9;c0.3,0.2,0.7,0.5,1.3,0.7c-0.1,0.1-0.7,0.1-0.2,0.3c1.2,0.5,0.7-0.3,1.2-0.4c-0.5-0.1-0.8-0.3-0.9-0.5c-0.2-0.2-0.3-0.4-0.3-0.6&#10;&#9;&#9;&#9;l0.4-0.1c-0.1,0.1,0.3,0.4,0.4,0.5l0.5-0.3c-0.4,0.3,0.1,1.1,0.9,1.2c-0.4-0.6-0.2-0.5,0-1c1.2,0,0.7,0.9,2.1,0.9&#10;&#9;&#9;&#9;c-0.2,0.1-1.2-0.2-0.5,0.3c0.7,0.3,0.8-0.1,1.3,0c-0.8,0.2-0.8,0.5-1.7,0.7c-1.3-0.5-0.5-0.2-1.8-0.6l0.8,0.7&#10;&#9;&#9;&#9;c-1.1-0.4-1.1,0.1-1.3,0.1c1.6,1.2,1.8,0.1,2.9,0.6c0.7,0-1.1-0.5,0-0.4c1.1,0.5,0.4-0.1,1.8,0.2l-0.3,0.1&#10;&#9;&#9;&#9;c0.3,0.4,0.8,0.2,1.3,0.3c0.6,0,0.1-1.5,2.2-0.8c-0.2,0.1-0.2,0.1-0.2,0.2c0,0-0.9,0.6-1.9,1.2c-1,0.6-1.9,1.2-1.9,1.2&#10;&#9;&#9;&#9;c2.3,0.7,4.9,1.6,7.6,2.5c0.4,0.8-2.2,0-2.1,0.3l-1.2-0.5c0.2-0.2,2.7,0.6,1.7-0.2c-2.3-0.4-3.1-1-5.5-1.1&#10;&#9;&#9;&#9;c0.3,0.8,2.8,0.7,3.9,1.6c-0.6-0.2-1.1-0.3-1.6-0.3c1.2,0.4,2.6,0.9,4,1.4l0.4-0.1c-1-0.3-1.6-0.5-1.7-0.6&#10;&#9;&#9;&#9;c1.3,0.4,2.6,0.3,2.8-0.1l-0.2-0.1l0.5,0L298.3,148.1z M312.6,193.4c-0.1-0.1-0.1-0.1-0.2-0.2&#10;&#9;&#9;&#9;C312.5,193.3,312.5,193.3,312.6,193.4z M275,138.1c0.5,1.5,1.5,3,2.7,4.2c-0.7-1.3-0.9-2.5-0.8-2.8c0.1-0.2,0.3-0.1,0.6,0.1&#10;&#9;&#9;&#9;c0.2,0.1,0.4,0.3,0.6,0.6c0.3,0.3,0.6,0.5,1,0.9c0,0,0.3,0.1,0.3,0.1c-0.3-0.5-1.1-1.1-1.7-1.8c-0.2-0.1-0.6-0.2-0.9-0.5&#10;&#9;&#9;&#9;c-0.3-0.2-0.8-0.5-1.1-0.7c-0.7-0.5-1.3-1.1-1.4-1.1c-0.3,0.3,0.3,0.7,0.3,1.2L275,138.1z M276.7,136.7c0-0.7-0.2-0.6-0.5-0.7&#10;&#9;&#9;&#9;c0.1,0.3,0.1,0.5,0.2,0.8C276.4,136.7,276.5,136.7,276.7,136.7z M275.9,136.1c0,0.1,0,0.2,0,0.2L275.9,136.1z M289.5,146.5&#10;&#9;&#9;&#9;c0,0-0.1,0-0.1,0c0.2,0.1,0.4,0.2,0.7,0.3C290,146.7,289.8,146.7,289.5,146.5z M287.8,145.5l-0.4,0.2c0.2,0.1,0.4,0.2,0.6,0.3&#10;&#9;&#9;&#9;C288,145.8,288,145.7,287.8,145.5z M282.8,142c-0.6,0.2-1.7-0.5-2.2-0.2c-0.2,0,0,0.2,0.2,0.4c0.3,0.2,0.6,0.4,0.9,0.6&#10;&#9;&#9;&#9;c0.1,0,0.2-0.1,0.3-0.1c-0.3-0.2-0.4-0.5,0-0.6c0.3,1,1.1,0,1.9,0.6C284.5,142.7,283.2,142.1,282.8,142z M333.2,95.3&#10;&#9;&#9;&#9;c0.1,0,0.2,0,0.5,0l-0.2,0.7c-1,0.9-2.4,1.2-2.6,2.3c-0.5,0.3-1.1,0.3-1.5,0.3c0.2-0.2,0.4-0.3,0.6-0.4&#10;&#9;&#9;&#9;C331.2,95.4,332,97.6,333.2,95.3z M321.7,105c0.1-0.1,0-0.2,0-0.2c-1.2,2.5-2.9,4.2-4.2,5.2c0.6,0,1.9-0.7,2.6-1l-0.1,0.7l-0.6,0&#10;&#9;&#9;&#9;l-0.5,0.9c0.5,0,1.1-0.6,1.7-0.8c0-0.1,1-1.5,1.1-2c0,0-0.3,0.2-0.7,0.4c-0.3,0.2-0.7,0.4-0.7,0.4c0.4-0.2,1.7-1.5,2.2-2&#10;&#9;&#9;&#9;c-0.2-0.1-1.4,0.5-1.1,0.9c-0.4-0.1,0.7-1.1-0.3-0.7c0.5-0.9,2.1-2,2.8-2.4l0.6,0.2c0.9-0.5-0.2-0.8,0.9-1.3&#10;&#9;&#9;&#9;c-0.9,0.9,0.7,0.2,0,0.9c0.4-0.1,0.5,0.3,1.3-0.4c0-1,1.3-0.5,1.2-1.4c0.6-0.3,0,0.7,0.8,0c0.5-1.1,0.2-1.2-0.2-1.5&#10;&#9;&#9;&#9;c-1,0.7-0.3,1.3-1.1,1.9l0.5-1.8c-0.4,0.2-0.6,0.3-0.7,0.5c0.2-0.3,0.3-0.6,0.3-0.9c0-0.2,0-0.3,0.1-0.5c-0.8,0.7-1.4,1.4-1.8,1.4&#10;&#9;&#9;&#9;l-0.1-0.2c-0.5,0.1-0.7,0.7-0.8,0.9c-0.7,0.7-1.1,1.5-1.5,1.4l0.1-0.4C322.8,103.9,322.8,104,321.7,105z M287.7,125.9&#10;&#9;&#9;&#9;c1.3,0.4,2.6,0.6,5.7-1.1l-0.2,0.2c2-0.4,2.6-2.2,5-2.6c-0.7,0.7-0.7,0.7-1.2,1.8l0.8-0.7c0,0.5,0.9-0.2,1.7-0.5l-0.3,0.8&#10;&#9;&#9;&#9;c-0.6,0.1-1.8,0.6-1.6,0.7c0.2-0.2-2,0.2-2.9,0.8c0.4,0.3,2.3-0.9,1.8,0.1c0.6-0.6,1-0.4,1.7-0.9c-0.6,0.6,0.2,0.5-0.2,1.1&#10;&#9;&#9;&#9;l1.3-0.8c0.1,0.1-1.8,1.2-0.4,1.1c0.4-0.4,2.1-1,1.8-1.3l0.1,0.1c1.1-0.4,0.1-0.7,1.5-1.1c-0.1-0.2-0.5-0.2-0.9,0.1&#10;&#9;&#9;&#9;c-0.3,0.3-0.2,0.5-0.9,1c-0.6-0.1,1-0.4,0.1-0.6c-0.5-0.1-1.9,1.2-1.8,0.4l1.1-0.4c-0.3-0.4,0.5-0.7,0.3-1c0.5-0.4,1.5-0.4,1.9-1&#10;&#9;&#9;&#9;c0.1-0.4-0.7-0.5,0.5-0.9c1.3,0.1,3.7-1.2,4.5-1.9l0.6-0.7c-0.3-0.1-1.6,0.9-1.3,0.4c0,0,0.3-0.2,0.6-0.4c0.3-0.2,0.6-0.5,0.6-0.5&#10;&#9;&#9;&#9;l0,0.2c0.4-0.2,0.6-0.6,0.9-0.9c0,0.2-0.3,0.5-0.4,0.7c-0.1,0.1-0.2,0.2-0.1,0.3c0,0.1,0,0.2,0.2,0.2c0.6-0.3,0.8-0.2,1.2-0.6&#10;&#9;&#9;&#9;c-0.1,0.1-0.1,0.2-0.1,0.2c1.2-0.6,0.6-1.1,0.7-1.4c0.5-1.2-1.5,0.4-1.8,0l2.8-2.4c-0.1,0.3-0.3,0.6,0,0.6&#10;&#9;&#9;&#9;c0.9-0.4,0.3,0.2,1.3-0.6c-0.6-0.4,1-1.2,1.4-2c0.5-0.1,0.7-0.1-0.1,0.5c0.4,0.2,1.3-0.7,1.6-0.9c0.1-0.2,0.4-0.5,0.5-0.8&#10;&#9;&#9;&#9;c-0.5,0.1-0.6-0.2-0.1-0.8l0-0.1c-1.1,0.7-3,1.7-3.4,2.5l0-0.3c-1.5,0.7-2.1,2.5-3.3,2.4c-0.2-0.2-0.3,0.1-0.7-0.2l-0.6,0.9l0-0.3&#10;&#9;&#9;&#9;l-1.5,1.2l0-0.1c-0.1,0.1-0.1,0.2-0.2,0.3c0,0.1,0,0.1-0.1,0.2l0,0.1c0,0.1-0.1,0.3-0.2,0.5c-0.2,0.3-0.4,0.6-0.5,0.8&#10;&#9;&#9;&#9;c0.1,0.1,0.2,0.2,0,0.4c-0.2,0.2-0.4,0.3-0.6,0.4v0l0,0c-0.5,0.2-1,0.1-1.6,0.3l1.6-0.9c-0.1-0.3-0.5-0.5-1.4-0.3&#10;&#9;&#9;&#9;c0.3-0.2,0.3-0.4-0.1-0.3c0,0.1-0.9,0.7-0.4,0.7c-1.5,0.9-4.6,1.5-6.7,3.2c1.5-1.1-1.7,0.4,0.2-0.7c-1.7,0.3-0.8,1-2.3,1.6&#10;&#9;&#9;&#9;c-0.2-0.1,0.8-0.4,0.8-0.8c-2.4,1-3.3,2.6-5.6,3.6l-0.4-0.3C288.6,125.3,288.1,125.6,287.7,125.9z M283.8,128.6&#10;&#9;&#9;&#9;c-0.4,0.3-0.8,0.5-1.1,0.8c0,0,0.1,0,0.1-0.1l-1,0.9c0.9-0.3,1.7-0.3,0.8,0.5c0-0.2-0.5-0.1-0.2-0.4c-0.9,0.2-2.6,1-1.7,1.2&#10;&#9;&#9;&#9;c0.9-1.2,0.9,0.4,1.6-0.6c-0.3,0.6-0.9,0.8-1.3,1.3c0.3-0.6-0.7-0.5-1.6,0c-0.3,0.3-1.3,0.9-1.6,1.4c0.5,0.1,0.3,0.6,1.2,0&#10;&#9;&#9;&#9;c-0.2,0.3-0.6,0.7-1.3,1c0.1-0.2,0.4-0.5,0.3-0.6c-0.6,0.1-1,0.4-1.3,0.5c-0.1,0.2-0.2,0.3-0.3,0.5c0.1,0,0.1-0.1,0.2-0.1&#10;&#9;&#9;&#9;c0,0,0,0.2,0,0.3c0,0.1,0.1,0.3,0.1,0.3c0-0.3,0.1-0.4,0.2-0.3c0.1,0,0.2,0.2,0.3,0.2c-0.2-0.1-0.3,0-0.3,0.1&#10;&#9;&#9;&#9;c0,0.1,0.1,0.1,0.1,0.1l0,0l0,0.1c0,0,0,0.1,0,0.1l0.1-0.1l0-0.1c0.2,0,0.3,0.1,0.5,0c0.1,0,0,0.1,0,0c0,0,0-0.1-0.1-0.1l0,0.2&#10;&#9;&#9;&#9;c0,0.2-0.1,0.4,0.2,0.3c0-0.1,0-0.2,0-0.3l0-0.2c0.1,0.1,0,0.2,0,0.2c0,0,0,0,0,0c0.1-0.1,0.1-0.2,0.2-0.3&#10;&#9;&#9;&#9;c0.2-0.3,0.4-0.5,0.8-0.9l-0.7,0.1c0.9-1.1,1.2-0.2,2.6-1.2c0.3-0.7,2.3-1.5,1.9-2c-0.1,0.3,1.4-0.2,1.8-0.7&#10;&#9;&#9;&#9;c0.2-0.8,2.1-1.9,1.3-1.8c-0.5,0.3-1,0.9-1.7,0.9l0.9-0.7l-0.9,0.1C284.5,129.1,284.3,128.8,283.8,128.6z M282.2,148.3&#10;&#9;&#9;&#9;C282.2,148.3,282.2,148.3,282.2,148.3L282.2,148.3L282.2,148.3z" style="fill: rgb(235, 213, 191);" transform="matrix(1, 0, 0, 1, -148.01990694322012, -40.140991713415644)"/><path class="st1" d="M342.5,83c0.1-0.3,0.6-0.9,0.2-0.9C343,82.3,341.8,83.2,342.5,83z" style="fill: rgb(235, 213, 191);" transform="matrix(1, 0, 0, 1, -148.01990694322012, -40.140991713415644)"/><path class="st1" d="M343.5,82.5c0-0.1-0.2-0.1,0-0.4l-0.5,0.7L343.5,82.5z" style="fill: rgb(235, 213, 191);" transform="matrix(1, 0, 0, 1, -148.01990694322012, -40.140991713415644)"/><path class="st1" d="M346.5,83.1c0.1-0.5,0.1-0.8,0.6-1.4c1,0.2-0.6,1.1,0,1.7c1-1,0.5-1.7,1.2-2.6&#10;&#9;&#9;&#9;C347.6,81.1,345.9,82.7,346.5,83.1z" style="fill: rgb(235, 213, 191);" transform="matrix(1, 0, 0, 1, -148.01990694322012, -40.140991713415644)"/><path d="M 347.20001220703125 84.0999984741211 L 347.5 83.4000015258789 L 347.3999938964844 83.4000015258789 L 347.1000061035156 84.0999984741211 Z" class="st1" style="fill: rgb(235, 213, 191);" transform="matrix(1, 0, 0, 1, -148.01990694322012, -40.140991713415644)"/><path class="st1" d="M328.5,92.4c-0.3-0.1-0.4,0.4-0.5,0.6C328.2,92.9,328.5,92.7,328.5,92.4z" style="fill: rgb(235, 213, 191);" transform="matrix(1, 0, 0, 1, -148.01990694322012, -40.140991713415644)"/><path class="st1" d="M313.9,176.5c0,0-0.9,1.2-1.7,2.5c-0.4,0.6-0.8,1.3-1.1,1.8c-0.3,0.5-0.5,0.8-0.5,0.8&#10;&#9;&#9;&#9;C311.5,180.1,312.4,178.8,313.9,176.5z" style="fill: rgb(235, 213, 191);" transform="matrix(1, 0, 0, 1, -148.01990694322012, -40.140991713415644)"/><path class="st1" d="M315.9,106.7c0.5-0.6,0.8-1.1,1.1-1.5c0.3-0.5,0.6-1,1.1-1.5c-2.1,1.1-1.3,2.4-3.2,3.1L315.9,106.7z" style="fill: rgb(235, 213, 191);" transform="matrix(1, 0, 0, 1, -148.01990694322012, -40.140991713415644)"/><path class="st1" d="M314.5,105.1c0.7,0.2-0.4,1.1,0.1,1.2c0.7-0.7,0-0.6,0.7-1.2L314.5,105.1z" style="fill: rgb(235, 213, 191);" transform="matrix(1, 0, 0, 1, -148.01990694322012, -40.140991713415644)"/><path d="M 327.6000061035156 105.30000305175781 L 327.3999938964844 105.80000305175781 L 327.70001220703125 105.4000015258789 Z" class="st1" style="fill: rgb(235, 213, 191);" transform="matrix(1, 0, 0, 1, -148.01990694322012, -40.140991713415644)"/><path d="M 309.29998779296875 109.80000305175781 L 309.3999938964844 109.5999984741211 L 308.5 110 Z" class="st1" style="fill: rgb(235, 213, 191);" transform="matrix(1, 0, 0, 1, -148.01990694322012, -40.140991713415644)"/><path class="st1" d="M309.4,109.5l-0.1,0.2L309.4,109.5z" style="fill: rgb(235, 213, 191);" transform="matrix(1, 0, 0, 1, -148.01990694322012, -40.140991713415644)"/><path d="M 328.1000061035156 106.4000015258789 L 328.79998779296875 105.9000015258789 L 328.79998779296875 105.5 Z" class="st1" style="fill: rgb(235, 213, 191);" transform="matrix(1, 0, 0, 1, -148.01990694322012, -40.140991713415644)"/><path class="st1" d="M320.7,109.1l0.4-0.5C321,108.7,320.1,109.1,320.7,109.1z" style="fill: rgb(235, 213, 191);" transform="matrix(1, 0, 0, 1, -148.01990694322012, -40.140991713415644)"/><path d="M 305 112.69999694824219 L 304.5 113.30000305175781 L 304.6000061035156 113.30000305175781 L 305.1000061035156 112.69999694824219 Z" class="st1" style="fill: rgb(235, 213, 191);" transform="matrix(1, 0, 0, 1, -148.01990694322012, -40.140991713415644)"/><path class="st1" d="M317.8,113.3c0.7,0-1,0.9,0.1,0.5C318.5,113.3,318,113.4,317.8,113.3z" style="fill: rgb(235, 213, 191);" transform="matrix(1, 0, 0, 1, -148.01990694322012, -40.140991713415644)"/><path class="st1" d="M307.6,117.5c-0.1,0.1-0.2,0.2-0.2,0.2C307.5,117.6,307.6,117.5,307.6,117.5z" style="fill: rgb(235, 213, 191);" transform="matrix(1, 0, 0, 1, -148.01990694322012, -40.140991713415644)"/><path class="st1" d="M307.6,117.5c0.3-0.2,0.7-0.3,0.8-0.5C307.9,117.1,307.8,117.2,307.6,117.5z" style="fill: rgb(235, 213, 191);" transform="matrix(1, 0, 0, 1, -148.01990694322012, -40.140991713415644)"/><path class="st1" d="M304,119.6l0.3-0.1c-0.2,0.3-0.1,0.2,0.1,0c0.3-0.2,0.2-0.3,0.2-0.3c0-0.1,0.1-0.1,0.1-0.2&#10;&#9;&#9;&#9;c-0.1,0.1-0.1,0.2-0.2,0.2C304,119.4,303.7,119.6,304,119.6z" style="fill: rgb(235, 213, 191);" transform="matrix(1, 0, 0, 1, -148.01990694322012, -40.140991713415644)"/><path class="st1" d="M285.3,121.7c1.2-0.5,1.6-0.6,1.7-0.3c1.1-0.5,0.6-0.8,1.2-1.2C287.1,120.8,286.7,120.9,285.3,121.7z" style="fill: rgb(235, 213, 191);" transform="matrix(1, 0, 0, 1, -148.01990694322012, -40.140991713415644)"/><path class="st1" d="M288.3,120.2c0.1-0.1,0.3-0.1,0.4-0.2C288.5,120,288.4,120.1,288.3,120.2z" style="fill: rgb(235, 213, 191);" transform="matrix(1, 0, 0, 1, -148.01990694322012, -40.140991713415644)"/><path d="M 311 119.30000305175781 L 310.79998779296875 120.0999984741211 L 311 119.9000015258789 Z" class="st1" style="fill: rgb(235, 213, 191);" transform="matrix(1, 0, 0, 1, -148.01990694322012, -40.140991713415644)"/><path class="st1" d="M283.6,122.5c0.2-0.1,0.6-0.3,0.8-0.3C284.2,121.9,283.3,122.5,283.6,122.5z" style="fill: rgb(235, 213, 191);" transform="matrix(1, 0, 0, 1, -148.01990694322012, -40.140991713415644)"/><path class="st1" d="M291.9,124.8c0.2,0.1,0.9-0.4,1.2-0.4C292.6,124.5,291.9,124.2,291.9,124.8z" style="fill: rgb(235, 213, 191);" transform="matrix(1, 0, 0, 1, -148.01990694322012, -40.140991713415644)"/><path class="st1" d="M281.2,125.1c0.2-0.1,0.7-0.1,0.7,0.1C282.1,125,282.1,124.4,281.2,125.1z" style="fill: rgb(235, 213, 191);" transform="matrix(1, 0, 0, 1, -148.01990694322012, -40.140991713415644)"/><path d="M 289.79998779296875 125.80000305175781 L 290 125.80000305175781 L 290.70001220703125 125.19999694824219 Z" class="st1" style="fill: rgb(235, 213, 191);" transform="matrix(1, 0, 0, 1, -148.01990694322012, -40.140991713415644)"/><path class="st1" d="M295.5,127.8c0.6-0.7-1.9,0-0.7-1c-2.1,0.7,0.5,0.3-0.9,1C294.8,127.5,295.5,127.7,295.5,127.8z" style="fill: rgb(235, 213, 191);" transform="matrix(1, 0, 0, 1, -148.01990694322012, -40.140991713415644)"/><path class="st1" d="M293.9,127.8c-0.1,0-0.3,0.1-0.4,0.2C293.6,127.9,293.8,127.9,293.9,127.8z" style="fill: rgb(235, 213, 191);" transform="matrix(1, 0, 0, 1, -148.01990694322012, -40.140991713415644)"/><path class="st1" d="M280.8,132.4c0.1-0.1,0.1-0.2,0.2-0.2C280.9,132.3,280.8,132.4,280.8,132.4z" style="fill: rgb(235, 213, 191);" transform="matrix(1, 0, 0, 1, -148.01990694322012, -40.140991713415644)"/><path class="st1" d="M289.7,130.3l0.9-1.1c-0.6,0.7-2.7,1.8-2.2,2.1c0.7-0.3,1.4-0.8,1.6-1.2L289.7,130.3z" style="fill: rgb(235, 213, 191);" transform="matrix(1, 0, 0, 1, -148.01990694322012, -40.140991713415644)"/><path class="st1" d="M268.6,137.9l-0.4-0.8c0,0,0,0.3,0,0.5c0,0.3,0.1,0.5,0.1,0.5C268.4,137.9,269,138.3,268.6,137.9z" style="fill: rgb(235, 213, 191);" transform="matrix(1, 0, 0, 1, -148.01990694322012, -40.140991713415644)"/><path class="st1" d="M268.4,138.4l-0.1-0.2C268.4,138.2,268.4,138.3,268.4,138.4z" style="fill: rgb(235, 213, 191);" transform="matrix(1, 0, 0, 1, -148.01990694322012, -40.140991713415644)"/><path class="st1" d="M282.8,130.9c0.4-0.2,0.7-0.4,1-0.7C283.6,130.2,282.5,130.7,282.8,130.9z" style="fill: rgb(235, 213, 191);" transform="matrix(1, 0, 0, 1, -148.01990694322012, -40.140991713415644)"/><path class="st1" d="M272.3,143c0,0-0.2-0.3-0.5-0.5c-0.2-0.3-0.5-0.5-0.5-0.5s0.2,0.3,0.5,0.6c0.3,0.3,0.5,0.6,0.5,0.6L272.3,143&#10;&#9;&#9;&#9;z" style="fill: rgb(235, 213, 191);" transform="matrix(1, 0, 0, 1, -148.01990694322012, -40.140991713415644)"/><path class="st1" d="M276.6,147.5l0.1,0.2c0,0,0.3,0.1,0.6,0.2c0.3,0.1,0.6,0.2,0.6,0.2l-0.1-0.2c0,0-0.3-0.1-0.5-0.2&#10;&#9;&#9;&#9;C276.9,147.6,276.6,147.5,276.6,147.5z" style="fill: rgb(235, 213, 191);" transform="matrix(1, 0, 0, 1, -148.01990694322012, -40.140991713415644)"/><path class="st1" d="M281.6,137.4c-0.1-0.3-0.8-0.3-0.8-0.2c0,0,0.1,0.1,0.2,0.3c0.1,0.1,0.2,0.3,0.2,0.3c0.4-0.3-0.1-0.2-0.2-0.5&#10;&#9;&#9;&#9;L281.6,137.4z" style="fill: rgb(235, 213, 191);" transform="matrix(1, 0, 0, 1, -148.01990694322012, -40.140991713415644)"/><path class="st1" d="M314.6,157.6c-0.4,0.2-1.8-0.3-1.7-0.6c0.2-0.1,1.1,0,0.6-0.2l-1.4,0.3c-1.4-0.7,1.5-0.5,2.3-0.6&#10;&#9;&#9;&#9;c-1.5-0.4-2.1-0.2-3.8-0.5c0.5,0.2,0.7,0.4,0.9,0.6c-0.1,0.4-1.6-0.1-2.7-0.3c0.7,0.3,0.2,0.4-0.4,0.5c-0.1,0-0.2,0-0.2,0l-0.2,0&#10;&#9;&#9;&#9;l0.1,0c0,0,0,0.1,0,0.2c1,0.1,1.6,0.6,2.2,0.7c-0.3-0.8,2.1,0.3,2.9,0.3l0.9,0.1l0.3,0.1c0,0.1-0.1,0.2-0.6,0.2&#10;&#9;&#9;&#9;c0.5,0,1.7,0.3,1.7,0.1c0,0,0.7,0.2,1.5,0.4c0.4,0.1,0.7,0.2,1,0.3c0.3,0.1,0.4,0.1,0.4,0.1c0.1,0.1,0.1,0.1,0.2,0.2&#10;&#9;&#9;&#9;c0.1,0,0.2,0,0.2-0.1c0,0,0.2,0.1,0.5,0.2c0.3,0.1,0.8,0.2,1.3,0.4c1,0.4,2.4,0.9,3.4,1.4c0.7,0.4,1.4,0.8,2.2,1.5&#10;&#9;&#9;&#9;c0.3,0.3,0.6,0.6,0.7,0.7c0.2,0.2,0.2,0.3,0.2,0.3c-0.1-0.2-0.2-0.3-0.2-0.5c-0.1-0.2-0.2-0.4-0.3-0.6c0.5,0.1,0.4,0,0.2-0.2&#10;&#9;&#9;&#9;c-0.2-0.2-0.5-0.5-0.1-0.5c0.5,0.1,0.8,0.5,0.9,0.8c0.3-0.1,0.2-0.5,0.6-0.6c-0.1-0.3-0.4-0.4-0.6-0.6c-0.1-0.1-0.2-0.1-0.4-0.1&#10;&#9;&#9;&#9;l-0.2-0.1l0,0l0,0c-0.2-0.2,0.3,0.2,0.2,0.2l0,0h0l0,0l0,0l0,0l-0.1,0c-0.3-0.1-0.6-0.1-0.9-0.2c-0.1-0.1-0.3-0.1-0.4-0.2&#10;&#9;&#9;&#9;c-0.1-0.1-0.2-0.1-0.2-0.1c0.3-0.2,0.7-0.3,0.2-0.5l0.2,0c-0.4-0.1-0.6-0.4-0.7-0.5c-0.1-0.2-0.2-0.3-0.9-0.1l0.3-0.3&#10;&#9;&#9;&#9;c-0.4,0-0.9-0.1-1.4-0.3c-0.5-0.1-1-0.3-1.4-0.4l0.1-0.1c-2.4-0.3-1.2-0.3-3.9-0.9l1.4-0.1c-0.8-0.4-1.2,0-1.9-0.2&#10;&#9;&#9;&#9;c0.1-0.1,0.1-0.4,0.7-0.3c0,0-0.9,0-1.8-0.1c-0.9,0-1.8-0.1-1.8-0.1C313.7,157.2,314.6,157.4,314.6,157.6z" style="fill: rgb(235, 213, 191);" transform="matrix(1, 0, 0, 1, -148.01990694322012, -40.140991713415644)"/><path class="st1" d="M310.7,156.1c-0.2-0.1-0.4-0.1-0.6-0.2C310.3,156,310.5,156,310.7,156.1z" style="fill: rgb(235, 213, 191);" transform="matrix(1, 0, 0, 1, -148.01990694322012, -40.140991713415644)"/><path class="st1" d="M327.4,164.3c0,0-0.1-0.1-0.1-0.2c-0.1-0.1-0.1-0.2-0.2-0.2C327.2,164.1,327.2,164.2,327.4,164.3z" style="fill: rgb(235, 213, 191);" transform="matrix(1, 0, 0, 1, -148.01990694322012, -40.140991713415644)"/><path class="st1" d="M305.4,155.8c0.5,0.3-0.6,0.2-0.7,0.3l2.2,0.5c0-0.2,0.3-0.3,0.3-0.4L305.4,155.8z" style="fill: rgb(235, 213, 191);" transform="matrix(1, 0, 0, 1, -148.01990694322012, -40.140991713415644)"/><path class="st1" d="M307.4,157c0.1-0.1,0.4-0.1,0.7-0.2l-1.2-0.2C306.8,156.7,306.9,156.8,307.4,157z" style="fill: rgb(235, 213, 191);" transform="matrix(1, 0, 0, 1, -148.01990694322012, -40.140991713415644)"/><path d="M 310.1000061035156 149 L 310.5 149.10000610351562 L 311.1000061035156 149.10000610351562 Z" class="st1" style="fill: rgb(235, 213, 191);" transform="matrix(1, 0, 0, 1, -148.01990694322012, -40.140991713415644)"/><path class="st1" d="M315.9,151c-0.4-0.3-1.3-0.4-1.6-0.4C315.3,150.9,314.8,150.8,315.9,151z" style="fill: rgb(235, 213, 191);" transform="matrix(1, 0, 0, 1, -148.01990694322012, -40.140991713415644)"/><path d="M 315.6000061035156 148.3000030517578 L 316.70001220703125 148.39999389648438 L 316.6000061035156 148.39999389648438 Z" class="st1" style="fill: rgb(235, 213, 191);" transform="matrix(1, 0, 0, 1, -148.01990694322012, -40.140991713415644)"/><path class="st1" d="M329.4,164.4c0,0.1-0.1,0.1-0.1,0.2C329.3,164.5,329.4,164.4,329.4,164.4z" style="fill: rgb(235, 213, 191);" transform="matrix(1, 0, 0, 1, -148.01990694322012, -40.140991713415644)"/><path class="st1" d="M328.4,163.3c0.1,0.6-0.1,0.5-0.4,0.3c-0.3-0.2-0.8-0.5-0.9-0.1l0.7,0.4l-0.2,0c0,0,0.1,0.1,0.2,0.3&#10;&#9;&#9;&#9;c0.1,0.1,0.2,0.2,0.2,0.2c0.3-0.2,0.2-0.3,0.6-0.4c0.1,0.2,0.1,0.2,0,0.3c0,0.1-0.1,0.1-0.1,0.1c-0.1,0-0.1,0-0.2,0.1&#10;&#9;&#9;&#9;c0,0,0,0-0.1,0l0,0c0,0-0.1,0,0,0c0.2,0,0.6-0.1,0.8-0.2c0,0,0.2,0,0.5-0.1c0.2,0,0.3,0,0.4,0c0.1,0,0.3,0,0.4,0c0.3,0-0.1,0,0,0&#10;&#9;&#9;&#9;l0.1,0c0,0-0.1,0-0.1,0c0,0-0.1,0-0.1,0c0,0-0.1,0-0.3-0.1c-0.1,0-0.3-0.1-0.5-0.2c-0.1,0-0.2-0.1-0.4-0.1l-0.2-0.1&#10;&#9;&#9;&#9;c-0.1,0-0.2-0.1-0.3-0.1l-0.2-0.1c0,0,0,0,0,0l0,0c0,0,0,0,0,0c0,0,0,0.1-0.1,0.1c-0.1,0.1-0.1,0.1-0.2,0.2l-0.3,0.3&#10;&#9;&#9;&#9;c-0.4,0.4-1.1,0.8-1.6,1.2c-0.5,0.4-0.9,0.6-0.9,0.6c-0.9,0.9,1,0,0.6,0.8c0.7-0.4,1.5-0.9,2.1-1.2c0.6-0.4,0.8-0.7,0.6-0.9&#10;&#9;&#9;&#9;c0,0.1,0.1,0.2,0.4,0.1c0,0,0-0.2,0-0.3c0-0.2-0.1-0.3-0.1-0.3l-0.5,0.2c0-0.2,0.1-0.4,0.2-0.5c0.1-0.1,0-0.1,0.1-0.2c0,0,0,0,0,0&#10;&#9;&#9;&#9;l0,0l0,0l0,0l0.1,0l0.2,0.1l0.1,0.1l0.3,0.1c0.2,0.1,0.4,0.1,0.5,0.2c0.2,0.1,0.4,0.1,0.6,0.2c0.1,0,0.1,0,0.2,0c0.1,0-0.1,0,0,0&#10;&#9;&#9;&#9;c0,0,0.1,0,0.1,0c0,0-0.1,0-0.1,0c-0.1,0,0,0-0.2,0c-0.2,0-0.3-0.1-0.4-0.1c-0.1,0-0.2-0.1-0.4-0.1c-0.1,0-0.1,0-0.1,0l0,0&#10;&#9;&#9;&#9;c0,0-0.1,0.1-0.3,0.2c0.2,0.1,0.5,0.1,0.5,0.3c0.1-0.1,0.2-0.2,0.2-0.3c0,0,0,0,0-0.1c0,0,0,0,0,0l0.2,0.1c0.7,0.2,0.7,0.1,0,0.1&#10;&#9;&#9;&#9;l-0.1,0c0,0-0.1,0-0.1,0l0,0c0,0,0,0,0,0c0,0,0-0.1-0.1-0.1l-0.1-0.1c-0.1-0.1-0.2-0.2-0.3-0.3&#10;&#9;&#9;&#9;C328.8,163.6,328.6,163.4,328.4,163.3z" style="fill: rgb(235, 213, 191);" transform="matrix(1, 0, 0, 1, -148.01990694322012, -40.140991713415644)"/><path class="st1" d="M314.7,176.4L314.7,176.4C314.6,176.4,314.6,176.4,314.7,176.4z" style="fill: rgb(235, 213, 191);" transform="matrix(1, 0, 0, 1, -148.01990694322012, -40.140991713415644)"/><path class="st1" d="M315.3,175.8l0.2-1.3c0,0-0.3,0.4-0.6,0.8c-0.3,0.4-0.6,0.8-0.6,0.8l0.3,0.3c0-0.2,0.2-0.8,0.5-1L315.3,175.8&#10;&#9;&#9;&#9;z" style="fill: rgb(235, 213, 191);" transform="matrix(1, 0, 0, 1, -148.01990694322012, -40.140991713415644)"/><path class="st1" d="M316.4,172.9c-0.5,0.8,0,1,0.6,0.8c-0.1,0.1-0.1,0.2-0.2,0.2l0,0l0,0l0,0l-0.2,0.3c0,0,0,0-0.1,0.1&#10;&#9;&#9;&#9;c-0.1,0.1-0.2,0.1-0.3,0.1c-0.2,0-0.2,0-0.2,0.4c0.2,0.1,0.4-0.1,0.6-0.4l0,0l0,0l0,0l0,0l0,0l0.2-0.2l0.1-0.1&#10;&#9;&#9;&#9;c0-0.1,0.1-0.1,0.1-0.2c0.1-0.1,0.1-0.2,0.2-0.3L316.4,172.9z" style="fill: rgb(235, 213, 191);" transform="matrix(1, 0, 0, 1, -148.01990694322012, -40.140991713415644)"/><path d="M 323.29998779296875 167.6999969482422 L 323.20001220703125 168 L 323.8999938964844 167.60000610351562 Z" class="st1" style="fill: rgb(235, 213, 191);" transform="matrix(1, 0, 0, 1, -148.01990694322012, -40.140991713415644)"/><path class="st1" d="M323.2,168l-0.7,0.4c0.2,0.1,0.3,0.1,0.5,0.1L323.2,168z" style="fill: rgb(235, 213, 191);" transform="matrix(1, 0, 0, 1, -148.01990694322012, -40.140991713415644)"/><path class="st1" d="M320.7,169.5c-0.3,0.2-0.6,0.4-1,0.7L320.7,169.5z" style="fill: rgb(235, 213, 191);" transform="matrix(1, 0, 0, 1, -148.01990694322012, -40.140991713415644)"/><path class="st1" d="M321.5,169.1L321.5,169.1l-0.8,0.5C321,169.4,321.3,169.2,321.5,169.1z" style="fill: rgb(235, 213, 191);" transform="matrix(1, 0, 0, 1, -148.01990694322012, -40.140991713415644)"/><path class="st1" d="M322.5,168.4c-0.4-0.2-0.8-0.3-1.7,0.4l0.6,0.2L322.5,168.4z" style="fill: rgb(235, 213, 191);" transform="matrix(1, 0, 0, 1, -148.01990694322012, -40.140991713415644)"/><path d="M 322.70001220703125 150.6999969482422 L 323.70001220703125 150.8000030517578 L 323.6000061035156 150.6999969482422 L 322.6000061035156 150.60000610351562 Z" class="st1" style="fill: rgb(235, 213, 191);" transform="matrix(1, 0, 0, 1, -148.01990694322012, -40.140991713415644)"/><path class="st1" d="M327.8,152.7c0.3,0,0.5,0.1,0.7,0.1C328.2,152.7,328,152.7,327.8,152.7z" style="fill: rgb(235, 213, 191);" transform="matrix(1, 0, 0, 1, -148.01990694322012, -40.140991713415644)"/><path class="st1" d="M333.6,153c1.1,1.1-2.2-0.8,0.2,0.8c0,0.2-0.4,0.2-0.9,0c-0.2-0.1-0.5-0.2-0.8-0.3c-0.2-0.1-0.5-0.2-0.7-0.4&#10;&#9;&#9;&#9;c0.3-0.2,1.1,0.3,0.7-0.2c-0.9-0.1-1-0.4-1.1,0.1c-1.3-0.3-1.6-0.1-2.5-0.2c0.3,0.1,0.8,0.3,1.2,0.5c0.4,0.2,0.9,0.5,1.5,0.8&#10;&#9;&#9;&#9;c0.6,0.3,1.2,0.7,1.7,1c0.1,0.1,0.3,0.2,0.4,0.2c0.1,0.1,0.2,0.1,0.3,0.2c0.2,0.1,0.4,0.2,0.6,0.2c0.3,0,0.5,0,0.7-0.1&#10;&#9;&#9;&#9;c0.1,0,0.2-0.1,0.3-0.1l0,0l0,0l0,0l0.3,0.2l0,0l0,0l0.1,0l0.1-0.1l0,0l0,0l0,0l-0.3-0.2l0,0l0,0l0.1,0l0.1-0.1l0.2-0.2&#10;&#9;&#9;&#9;c0.1-0.1,0.3-0.3,0.4-0.4c0-0.1-0.3-0.5-0.8-0.8c-0.1-0.1-0.4-0.2-0.5-0.3c-0.2-0.1-0.4-0.2-0.6-0.3&#10;&#9;&#9;&#9;C334,153,333.7,152.9,333.6,153z" style="fill: rgb(235, 213, 191);" transform="matrix(1, 0, 0, 1, -148.01990694322012, -40.140991713415644)"/><path class="st1" d="M332.1,151.3c-0.5-0.3-0.7-0.4-1.1-0.5C330.9,151.1,331.6,151.1,332.1,151.3z" style="fill: rgb(235, 213, 191);" transform="matrix(1, 0, 0, 1, -148.01990694322012, -40.140991713415644)"/><path class="st1" d="M335.7,163c0.2,0,0.5,0.8,0.7,0.6c0,0-0.1-0.3-0.2-0.6c-0.2-0.3-0.3-0.6-0.3-0.6&#10;&#9;&#9;&#9;C335.9,162.7,335.8,162.8,335.7,163z" style="fill: rgb(235, 213, 191);" transform="matrix(1, 0, 0, 1, -148.01990694322012, -40.140991713415644)"/><path class="st1" d="M335.5,162c0,0,0.1,0.1,0.2,0.2c0.1,0.1,0.2,0.2,0.2,0.2C335.8,162.3,335.7,162.1,335.5,162z" style="fill: rgb(235, 213, 191);" transform="matrix(1, 0, 0, 1, -148.01990694322012, -40.140991713415644)"/><path class="st1" d="M317.9,171.5c-0.2-0.2-0.5,0.4-0.7,0.6C317.4,172,317.8,171.8,317.9,171.5z" style="fill: rgb(235, 213, 191);" transform="matrix(1, 0, 0, 1, -148.01990694322012, -40.140991713415644)"/><path class="st1" d="M307.4,189.2l-0.3,0.4C307.2,189.4,307.3,189.4,307.4,189.2z" style="fill: rgb(235, 213, 191);" transform="matrix(1, 0, 0, 1, -148.01990694322012, -40.140991713415644)"/><path class="st1" d="M313.4,196.4c0.1,0,0.1,0,0.1,0.1C313.5,196.4,313.5,196.4,313.4,196.4z" style="fill: rgb(235, 213, 191);" transform="matrix(1, 0, 0, 1, -148.01990694322012, -40.140991713415644)"/><path class="st1" d="M313.6,196.4c0.2,0.3-0.1,1.1,0.3,1.3l-0.1,0l0.3,0.5c0-0.2-0.1-0.6-0.2-0.9&#10;&#9;&#9;&#9;C313.8,196.9,313.7,196.6,313.6,196.4z" style="fill: rgb(235, 213, 191);" transform="matrix(1, 0, 0, 1, -148.01990694322012, -40.140991713415644)"/>
<path class="st2" d="M245.4,214c0,0,5.5,66.7,68.4,67.4c62.9,0.6,71.1-52.8,72.2-63.9C386,217.5,285.3,244.6,245.4,214z" style="fill: rgb(132, 102, 58);" transform="matrix(1, 0, 0, 1, -148.01990694322012, -40.14099171341563)"/>

<path class="st1" d="M227.9,245.9c-8.5-9-18.1-23.1-15.5-35.9c0.7-3.5,4.7-6.5,8.2-6.2c1.6,0.1,3.2,0.4,4.8,0.6&#10;&#9;&#9;c2.6-0.4,5.2-0.5,7.7-0.2c0.2-0.5,0.4-1.1,0.6-1.6c0,0-42.8-14.7-28.1,15c14.7,29.7,25,44.5,36.9,42c0,0-0.7-1.2-1.7-3.4&#10;&#9;&#9;C236,253.3,231.6,249.9,227.9,245.9z" style="fill: rgb(235, 213, 191);" transform="matrix(1, 0, 0, 1, -148.01990694322012, -40.14099171341563)"/></svg>