<?xml version="1.0" encoding="utf-8"?>
<svg id="master-artboard" viewBox="0 0 464.67431640625 451.111083984375" version="1.1" xmlns="http://www.w3.org/2000/svg" x="0px" y="0px" style="enable-background:new 0 0 1400 980;" width="464.67431640625px" height="451.111083984375px"><rect id="ee-background" x="0" y="0" width="464.67431640625" height="451.111083984375" style="fill: white; fill-opacity: 0; pointer-events: none;"/>



<path d="M 445.699997 269.799988 A 183.300003 183.300003 0 0 1 262.399994 453.099991 A 183.300003 183.300003 0 0 1 79.099991 269.799988 A 183.300003 183.300003 0 0 1 262.399994 86.499985 A 183.300003 183.300003 0 0 1 445.699997 269.799988 Z" class="st1" style="fill: rgb(65, 112, 143);" transform="matrix(1, 0, 0, 1, -31.264369072706018, -48.19923565375517)"/>









<g transform="matrix(1, 0, 0, 1, -28.659003724291836, -44.29119012680631)">
	<path class="st0" d="M348.8,177.1l-202.4,41.3c40.5,15.6,99.6,38.4,114.4,44.1L348.8,177.1z" style="fill: rgb(255, 255, 255);"/>
	<path class="st0" d="M264.2,278.9l-129-52.4l27,132.3c0.6,2.8,3.4,4.7,6.2,4.1l216.8-44.2c2.9-0.6,4.7-3.4,4.1-6.2l-27-132.3&#10;&#9;&#9;L264.2,278.9z" style="fill: rgb(255, 255, 255);"/>
</g>
</svg>