<?xml version="1.0" encoding="utf-8"?>
<svg id="master-artboard" viewBox="0 0 924.8908081054688 1145.3096923828125" version="1.1" xmlns="http://www.w3.org/2000/svg" x="0px" y="0px" style="enable-background:new 0 0 649 485;" width="924.8908081054688px" height="1145.3096923828125px"><rect id="ee-background" x="0" y="0" width="924.8908081054688" height="1145.3096923828125" style="fill: white; fill-opacity: 0; pointer-events: none;"/>

<linearGradient id="SVGID_1_" gradientUnits="userSpaceOnUse" x1="324.4938" y1="995.3072" x2="324.4938" y2="-222.5641" gradientTransform="matrix(1 0 0 -1 0 474)">
		<stop offset="0" style="stop-color:#DCD1CD"/>
		<stop offset="1" style="stop-color:#A19589"/>
	</linearGradient>

<path class="st3" d="M415,305.2c-0.4,46.7-60.4,71.6-99,73.1c-45.8,1.8-94.5-13.7-112.4-41.4c-17.8-27.6-6.7-60.8,25.3-71.6&#10;&#9;&#9;c-28.6,15.1-32.3,47.9-11.1,70.5c38.5,41,120.8,43,166.8,14.3C403.6,338.2,414.1,321.9,415,305.2L415,305.2z M261.3,288.3&#10;&#9;&#9;c6.6,6.2,12.7,13.5,22.2,18.6c24.1,12.9,57,4.3,71.3-17.8c7.6-11.8,11-24.7,11.3-32.4c0.3-17.3-9.6-4.6-27.7-3.7&#10;&#9;&#9;c-23.1,1.2,2.3,52.5-34.4,51.4C287.8,303.9,277.8,302.8,261.3,288.3L261.3,288.3z M274.2,118.8c-2.1,0.2-13,1.2-18.2-8&#10;&#9;&#9;c-5.2-9.2,0.1-18.8,5.7-21.5c5.6-2.7,10-2.3,10-2.3s-10.8,0.6-13.8,10.9C254.1,110.6,264.8,116.4,274.2,118.8L274.2,118.8z&#10;&#9;&#9; M311.9,193.1c0.3,0.6,9.1-5.8,6.8-14.5c-3.7-14-21.4-14.1-13.7-25.1c6.3-9,15.1-11.8,21.8-20.8c7.9-10.5,5.7-25-1-31.5&#10;&#9;&#9;c-8.8-8.6-24.7-7.7-33.3,2.2c-7.5,8.7-12.3,19-26.7,15.6c-20.1-4.7-17-29.4,0.4-33.1c4.5-0.9,9.3-0.4,14.5,0.6&#10;&#9;&#9;c14.6,2.7,29.8,4,42.1-2.2c15.3-7.6,26.4-28.3,14.5-43.7c-3.8-5-9.3-8.2-15.5-9.1l0,0l0,0c-11.7-1.4-22.8,6.3-24.1,18.3l0,0v0&#10;&#9;&#9;c-0.4,5.2,1.3,10.4,4.9,14.2c2.8,2.9,6.4,4.7,10.4,5.1l0,0h0.1c4.3,0.3,8.8-1.2,11.8-4.4c2.1-2.2,3.3-5,3.5-8.1v-0.1v0&#10;&#9;&#9;c0-5.5-3.9-10.8-9.9-10.5h-0.1l0,0c-2.4,0.3-5,1.9-5.8,4.2c-0.4,1.2-0.3,2.4,0.1,3.5l0,0.1l0,0.1c0.9,1.8,2.9,2.7,4.7,1.9&#10;&#9;&#9;c0.5,1.5-1.6,2.7-2.8,2.9c-4.2,0.5-7-3.5-7.3-7.3c-0.2-6.6,5.4-11.3,11.7-11.8c7.3-0.3,13.6,4.1,15.7,10.6&#10;&#9;&#9;c3.8,11.5-2.2,20.1-11.3,25.3c-19.2,11.1-36.2,0.8-56.1,1.5c-27.8,1.1-35.1,39.8-7.2,50.1c7.1,2.3,14.3,1.3,20.4-1.9&#10;&#9;&#9;c6.2-3.1,10.1-9.1,14.3-14.5c4.7-6.1,8.9-7.9,14.2-7.9c6,0,11.3,3.4,14,9.8c8.9,25-25.7,28.3-31.2,43.7&#10;&#9;&#9;c-4.5,12.6,16.1,13,21.2,21.8C316.2,184.3,313.6,191.2,311.9,193.1L311.9,193.1z M310.9,188.3c0,0,0.4-5.4-4.2-9.8&#10;&#9;&#9;c-4.6-4.4-15.7-5.5-20.6-10.9c-4.9-5.3-4.8-12.9,2.1-19.4c2.7-2.5,7-5.5,11.2-8c6.3-3.8,16.1-9.1,19-16.1&#10;&#9;&#9;c3.4-8.2-5.5-18.4-14.1-13.7c-2.8,1.7-4.6,5-3.5,8c0.7-2.2,2.7-3.7,5.1-3.7c3,0,5.5,2.4,5.5,5.4c0.1,2.3-1.5,4.5-3.6,5.5&#10;&#9;&#9;c-4.5,2-9.2-0.7-11-5.1c-2.2-5.9,1.2-11.9,6.8-14.2c7.4-2.7,15.1,1.6,17.7,8.9c6.6,20.2-24.3,24.9-32.2,37.9&#10;&#9;&#9;c-3.6,5.9-3.5,14.7,11.2,19.6C315.1,177.6,310.9,188.3,310.9,188.3L310.9,188.3z M318.8,188.9c6.2-10.7,3.2-14-2.1-19.6&#10;&#9;&#9;c-3.1-3.3-8.4-6-9.4-10.8c-1.6-7.2,11-11.4,19.9-20.9c2.8-3,5.3-6.6,6.8-11c5.3-15.5-3.1-34.4-21.4-34.4&#10;&#9;&#9;c27.6-2.3,36,28.3,19.6,46.9c-3.1,3.5-6.9,6.9-10.8,10.2c-5.2,4.3-8.6,8.8-4,13.1C325.1,169.8,327.6,180.7,318.8,188.9L318.8,188.9&#10;&#9;&#9;z M365.9,309.2c-33.8,36.8-112.2,26-114-10.1c0-2.9,0.9-5.8,2.6-8.5c4.5,6.3,9.8,12.1,15.6,17.1c21.7,18.5,52.6,20.5,76.8,0.8&#10;&#9;&#9;c21-17.2,31.4-39.4,37.8-71.4c3.8-5.5,8.7-10.3,14.1-11.3c7.3-1.3,11.5,1.9,11.8,6.8c1.1,19.3-17.5,23.3-28.1,35&#10;&#9;&#9;c-7.5,8.2-16.3,21.1-22.5,32.1c7-11.5,21.2-27.1,29-30.1c13.3-5.1,27.2-12.3,32.4-26.8c2.9-8,1.6-17.1-3.5-23.9&#10;&#9;&#9;c-7.2-9.6-24.2-12.2-32.7-2.8c0.1-25-33.3-33.9-59-36.3c-0.2,1.3-0.6,2.7-1.2,3.9c33.8,3.5,61.7,16.9,51.8,35.3&#10;&#9;&#9;c-17.7,33.1-118.6,39.4-141.7,3.4c14.1,33.3,83.9,34.4,120.4,21.8c9.1-2.8,12.6-1,12.4,9.5c-1.1,54.7-60.7,80.3-99.5,45.6&#10;&#9;&#9;c-23-20.5-34.7-56-34.8-84.3c7.5-23,41-32.4,73.9-32.3c-0.6-1.1-1.3-2-2.2-2.9c-0.2-0.2-0.5-0.5-0.8-0.7&#10;&#9;&#9;c-34.1,1.7-67.6,12.9-72.9,36.3c0.2,18.4,4.7,41.6,14.6,61.3c2.2,4.4,4.8,8.7,7.7,12.8c-5.5,4.4-8.6,9.5-8.6,14.9&#10;&#9;&#9;c0.2,10.7,10.6,22,28.4,28.6C305.8,345.2,351.7,335.5,365.9,309.2L365.9,309.2z M363.3,231.2c-4.6,2.7-5.4,2.9-8.3,4.1&#10;&#9;&#9;c-2.2,0.9-4.8-0.9-10.1-10.7c3.1,9.9-3.6,16-14.7,18.4c-8.9,1.9-22.2,3-34.3,2.6c-22.5-0.7-42.5-8.1-47.6-12.6&#10;&#9;&#9;c3.8-22.2,37.4-28.7,59.1-29c18.4-0.3,37.2,3.4,49.4,10.9c8.9,5.5,10.6,9.5,10,12.2C366.2,229.9,363.4,231.2,363.3,231.2z" style="fill-rule: evenodd; clip-rule: evenodd; fill: rgb(66, 33, 11);" transform="matrix(2.7948861122131348, 0, 0, 2.7948861122131348, -393.2213134765625, -12.174182891845703)"/>
</svg>