<?xml version="1.0" encoding="utf-8"?>
<svg id="master-artboard" viewBox="0 0 1183.6295166015625 1485.8875732421875" version="1.1" xmlns="http://www.w3.org/2000/svg" x="0px" y="0px" style="enable-background:new 0 0 649 485;" width="1183.6295166015625px" height="1485.8875732421875px"><rect id="ee-background" x="0" y="0" width="1183.6295166015625" height="1485.8875732421875" style="fill: white; fill-opacity: 0; pointer-events: none;"/>




<path class="st3" d="M260.2,294.7c0.4-2.9,0.8-5.7,1-8c-0.8,1-2,2-3.4,3c-9.8,6.8-32.9,11.9-61,13.2c-9.6,0.8-19.5,0.9-29.3,0.1&#10;&#9;&#9;&#9;c-2.7-0.2-5.2-0.4-7.7-0.7c-26.2-2-46.8-7.4-54.4-14.2c-0.4,24.8,18.6,60.4,33.4,74.1c9.3,8.6,23.5,11.8,36.7,12.7&#10;&#9;&#9;&#9;c28.6,1.8,41.7-0.4,60.5-23.8l1.1-1.3c2.3-0.6,11.6-3.3,20.8-8.9c7.6-4.6,15.1-11,18.6-19.8C283.7,302.8,267.2,295.9,260.2,294.7z&#10;&#9;&#9;&#9; M257.9,329.2c-3.5,3.1-7.3,5.6-10.2,6.7c5.5-8.2,8.1-14.8,10.2-26.4c0.3-1.8,0.7-3.7,1-5.8C274.7,307.9,267.3,320.8,257.9,329.2z&#10;&#9;&#9;&#9;" style="fill-rule: evenodd; clip-rule: evenodd; fill: rgb(125, 68, 28);" transform="matrix(3.5413241386413574, 0, 0, 3.5413241386413574, -92.15974426269531, -62.883575439453125)"/><path class="st3" d="M142.9,214.1c0,0-4.2,0.1-4.2,6.1c0,5.9,1.6,14,7.8,13.3C152.7,232.8,154,212.6,142.9,214.1z" style="fill-rule: evenodd; clip-rule: evenodd; fill: rgb(125, 68, 28);" transform="matrix(3.5413241386413574, 0, 0, 3.5413241386413574, -92.15974426269531, -62.883575439453125)"/><path class="st2" d="M143.6,214c-0.3,2.2-0.2,5,1,7c2.2,3.5,3,8.8,2.8,12.2c-0.2,0.1-0.4,0.2-0.7,0.2c-0.1-2.7-0.6-6.7-2.9-10.3&#10;&#9;&#9;&#9;&#9;c-1.2-1.9-2-2.7-2.1-5.2c0-1.4,0.3-2.7,0.7-3.8c0.2,0,0.4,0,0.4,0C143.2,214.1,143.4,214,143.6,214z" style="fill-rule: evenodd; clip-rule: evenodd; fill: rgb(37, 14, 7);" transform="matrix(3.5413241386413574, 0, 0, 3.5413241386413574, -92.15974426269531, -62.883575439453125)"/><path class="st3" d="M139.9,161.3c0,0-4.5,0.1-4.5,6.5c0,6.4,1.7,15.1,8.4,14.3C150.5,181.4,151.8,159.7,139.9,161.3z" style="fill-rule: evenodd; clip-rule: evenodd; fill: rgb(125, 68, 28);" transform="matrix(3.5413241386413574, 0, 0, 3.5413241386413574, -92.15974426269531, -62.883575439453125)"/><path class="st2" d="M140.7,161.2c-0.3,2.4-0.3,5.4,1.1,7.6c2.4,3.8,3.2,9.5,3,13.1c-0.2,0.1-0.5,0.2-0.7,0.2&#10;&#9;&#9;&#9;&#9;c-0.1-2.9-0.6-7.3-3.2-11.1c-1.3-2-2.1-2.9-2.2-5.6c0-1.5,0.3-2.9,0.8-4.1c0.2,0,0.4-0.1,0.4-0.1&#10;&#9;&#9;&#9;&#9;C140.1,161.2,140.4,161.2,140.7,161.2z" style="fill-rule: evenodd; clip-rule: evenodd; fill: rgb(37, 14, 7);" transform="matrix(3.5413241386413574, 0, 0, 3.5413241386413574, -92.15974426269531, -62.883575439453125)"/><path class="st3" d="M206.8,153.9c0,0-4.3,0.1-4.3,6.3c0,6.1,1.7,14.5,8.1,13.8C217,173.3,218.3,152.4,206.8,153.9z" style="fill-rule: evenodd; clip-rule: evenodd; fill: rgb(125, 68, 28);" transform="matrix(3.5413241386413574, 0, 0, 3.5413241386413574, -92.15974426269531, -62.883575439453125)"/><path class="st2" d="M207.6,153.9c-0.3,2.3-0.3,5.2,1.1,7.3c2.3,3.7,3.1,9.1,2.9,12.6c-0.2,0.1-0.5,0.2-0.7,0.2&#10;&#9;&#9;&#9;&#9;c-0.1-2.8-0.6-7-3-10.7c-1.3-1.9-2.1-2.8-2.1-5.4c0-1.5,0.3-2.8,0.8-3.9c0.2,0,0.4,0,0.4,0C207.1,153.9,207.3,153.9,207.6,153.9z&#10;&#9;&#9;&#9;&#9;" style="fill-rule: evenodd; clip-rule: evenodd; fill: rgb(37, 14, 7);" transform="matrix(3.5413241386413574, 0, 0, 3.5413241386413574, -92.15974426269531, -62.883575439453125)"/><path class="st3" d="M166.4,151.1c0,0-3.2,0.1-3.2,4.6c0,4.5,1.2,10.7,6,10.2C173.9,165.4,174.8,150,166.4,151.1z" style="fill-rule: evenodd; clip-rule: evenodd; fill: rgb(125, 68, 28);" transform="matrix(3.5413241386413574, 0, 0, 3.5413241386413574, -92.15974426269531, -62.883575439453125)"/><path class="st2" d="M166.9,151.1c-0.2,1.7-0.2,3.8,0.8,5.4c1.7,2.7,2.3,6.7,2.2,9.3c-0.2,0.1-0.3,0.1-0.5,0.2&#10;&#9;&#9;&#9;&#9;c0-2-0.5-5.2-2.3-7.9c-0.9-1.4-1.5-2.1-1.6-4c0-1.1,0.2-2.1,0.6-2.9c0.2,0,0.3,0,0.3,0C166.5,151.1,166.7,151.1,166.9,151.1z" style="fill-rule: evenodd; clip-rule: evenodd; fill: rgb(37, 14, 7);" transform="matrix(3.5413241386413574, 0, 0, 3.5413241386413574, -92.15974426269531, -62.883575439453125)"/><path class="st3" d="M205.8,88.1c0,0-4.3,0.1-4.3,6.3c0,6.1,1.7,14.5,8.1,13.8S217.2,86.6,205.8,88.1z" style="fill-rule: evenodd; clip-rule: evenodd; fill: rgb(125, 68, 28);" transform="matrix(3.5413241386413574, 0, 0, 3.5413241386413574, -92.15974426269531, -62.883575439453125)"/><path class="st2" d="M206.5,88c-0.3,2.3-0.3,5.2,1.1,7.3c2.3,3.7,3.1,9.1,2.9,12.6c-0.2,0.1-0.5,0.2-0.7,0.2&#10;&#9;&#9;&#9;&#9;c-0.1-2.8-0.6-7-3-10.7c-1.3-1.9-2.1-2.8-2.1-5.4c0-1.5,0.3-2.8,0.8-3.9c0.2,0,0.4,0,0.4,0C206.1,88.1,206.3,88,206.5,88z" style="fill-rule: evenodd; clip-rule: evenodd; fill: rgb(37, 14, 7);" transform="matrix(3.5413241386413574, 0, 0, 3.5413241386413574, -92.15974426269531, -62.883575439453125)"/><path class="st3" d="M218.9,270.2c0,0-1.4,0-1.4,2c0,1.9,0.5,4.6,2.5,4.3C222.1,276.3,222.5,269.7,218.9,270.2z" style="fill-rule: evenodd; clip-rule: evenodd; fill: rgb(125, 68, 28);" transform="matrix(3.5413241386413574, 0, 0, 3.5413241386413574, -92.15974426269531, -62.883575439453125)"/><path class="st2" d="M219.1,270.1c-0.1,0.7-0.1,1.6,0.3,2.3c0.7,1.2,1,2.9,0.9,4c-0.1,0-0.1,0.1-0.2,0.1c0-0.9-0.2-2.2-1-3.4&#10;&#9;&#9;&#9;c-0.4-0.6-0.6-0.9-0.7-1.7c0-0.5,0.1-0.9,0.2-1.2c0.1,0,0.1,0,0.1,0C218.9,270.1,219,270.1,219.1,270.1z" style="fill-rule: evenodd; clip-rule: evenodd; fill: rgb(37, 14, 7);" transform="matrix(3.5413241386413574, 0, 0, 3.5413241386413574, -92.15974426269531, -62.883575439453125)"/><path class="st3" d="M165.7,103.5c0,0-4.9,0.2-4.9,7.1c0,7,1.9,16.5,9.2,15.7C177.3,125.6,178.8,101.8,165.7,103.5z" style="fill-rule: evenodd; clip-rule: evenodd; fill: rgb(125, 68, 28);" transform="matrix(3.5413241386413574, 0, 0, 3.5413241386413574, -92.15974426269531, -62.883575439453125)"/><path class="st2" d="M166.6,103.4c-0.3,2.6-0.3,5.9,1.2,8.3c2.6,4.2,3.5,10.4,3.3,14.3c-0.3,0.1-0.5,0.2-0.8,0.3&#10;&#9;&#9;&#9;&#9;c-0.1-3.1-0.7-8-3.5-12.1c-1.5-2.2-2.3-3.2-2.4-6.1c-0.1-1.7,0.3-3.2,0.9-4.5c0.3,0,0.4-0.1,0.4-0.1&#10;&#9;&#9;&#9;&#9;C166,103.5,166.3,103.4,166.6,103.4z" style="fill-rule: evenodd; clip-rule: evenodd; fill: rgb(37, 14, 7);" transform="matrix(3.5413241386413574, 0, 0, 3.5413241386413574, -92.15974426269531, -62.883575439453125)"/><path class="st3" d="M272.9,345.5c9.3,4.1,14.6,8.8,14.6,13.9c0,14.8-45.4,26.9-101.4,26.9c-56,0-101.4-12-101.4-26.9&#10;&#9;&#9;&#9;&#9;c0-6.3,8.1-12,21.6-16.6c-23.2,5.4-37.7,13-37.7,21.6c0,16.2,51.9,29.3,115.9,29.3c64,0,115.9-13.1,115.9-29.3&#10;&#9;&#9;&#9;&#9;C300.4,357.2,290.1,350.6,272.9,345.5z" style="fill-rule: evenodd; clip-rule: evenodd; fill: rgb(125, 68, 28);" transform="matrix(3.5413241386413574, 0, 0, 3.5413241386413574, -92.15974426269531, -62.883575439453125)"/><path class="st3" d="M130.1,366.8c0,7.3,24.4,13.2,54.6,13.2s54.6-5.9,54.6-13.2c0-7.3-24.4-13.2-54.6-13.2&#10;&#9;&#9;&#9;&#9;S130.1,359.5,130.1,366.8z M231.4,366.8c0,6.2-20.9,11.3-46.7,11.3c-25.8,0-46.7-5.1-46.7-11.3c0-6.2,20.9-11.3,46.7-11.3&#10;&#9;&#9;&#9;&#9;C210.5,355.5,231.4,360.6,231.4,366.8z" style="fill-rule: evenodd; clip-rule: evenodd; fill: rgb(125, 68, 28);" transform="matrix(3.5413241386413574, 0, 0, 3.5413241386413574, -92.15974426269531, -62.883575439453125)"/><path class="st3" d="M149.3,298.9c10.9,1.5,22.4,2.2,33.9,2.2c15.3,0,30.6-1.2,44.5-3.8c19.2-3.5,31.8-8.8,31.8-15.2&#10;&#9;&#9;&#9;&#9;c0-8.6-22.4-16.2-53.2-18.8c-0.1-0.7-0.1-1.5,0-2.3c1.8-5.7,9.7-11.5,16-18.1c6.3-6.6,5.4-16.9,3.7-22.2&#10;&#9;&#9;&#9;&#9;c-1.6-5.4-8.4-12.6-8.7-28.1c-0.2-15.5,4.5-20,7.3-22.4c2.3-2-13.5,7.3-13.2,22.8c0.2,15.5,7,22.7,8.7,28.1&#10;&#9;&#9;&#9;&#9;c1.6,5.4,2.6,15.7-3.7,22.2c-6.3,6.6-14.1,13.1-13.2,18.9c0,0.3,0.1,0.5,0.1,0.8c-6.3-0.5-12.9-0.7-19.7-0.7l-0.3,0&#10;&#9;&#9;&#9;&#9;c-1.3,0-2.6,0-3.9,0c5.7-6.6,13.9-13.3,21-20.7c10.8-11.2,9.2-28.9,6.4-38.1c-2.8-9.2-14.4-21.6-14.8-48.1&#10;&#9;&#9;&#9;&#9;c-0.4-26.5,7.7-34.3,12.4-38.4c3.9-3.4-23.1,12.5-22.6,39c0.4,26.5,12,38.9,14.8,48.1c2.8,9.2,4.4,26.9-6.4,38.1&#10;&#9;&#9;&#9;&#9;c-6.6,6.9-14.2,13.7-18.7,20.3c-5.1,0.2-10,0.6-14.7,1.1c5.4-12,13.2-16.2,16.3-20.4c3.4-4.5,7.7-13.9,4-22.2s-9.2-16.4-9-22.4&#10;&#9;&#9;&#9;&#9;c1.1-4.3,4.2-7.1,8-9c-2.8-1.2-7.8,1.6-10.6,6.8c-2.8,5.2,2.3,14,6.1,22.3c3.7,8.3-0.6,17.7-4,22.2c-3.4,4.5-12.2,9.1-17.6,23.5&#10;&#9;&#9;&#9;&#9;c-25.4,3.4-43,10.3-43,17.9C106.9,289.9,124.3,295.6,149.3,298.9z M148.6,269.5c-1.7,12.5,7.3,23.3,6,21&#10;&#9;&#9;&#9;&#9;c-1.7-3.1-4.5-8.6,0.1-21.8c4.4-0.5,9-0.9,13.9-1.2c-1.1,2.5-1.6,4.9-1.2,7.3c1.5,9.9,8.1,17.3,13.2,17c-5.1-5.2-8.3-11.5-7.7-19&#10;&#9;&#9;&#9;&#9;c0.6-1.8,1.5-3.7,2.7-5.6c2.5-0.1,5-0.1,7.6-0.1l0.2,0c7.6,0,14.9,0.3,21.6,0.9c1.6,2.7,3.8,4.4,5.7,4.3c-1.2-1.2-2.2-2.6-3-4&#10;&#9;&#9;&#9;&#9;c23.5,2.3,40.1,7.8,40.1,13.9c0,4.9-10.7,8.9-26.9,11.6c-11.8,2-24.8,2.9-37.8,2.9c-9.8,0-19.5-0.6-28.7-1.7&#10;&#9;&#9;&#9;&#9;c-21.2-2.5-36-6.8-36-12.5C118.5,277.1,130.6,272.3,148.6,269.5z" style="fill-rule: evenodd; clip-rule: evenodd; fill: rgb(125, 68, 28);" transform="matrix(3.5413241386413574, 0, 0, 3.5413241386413574, -92.15974426269531, -62.883575439453125)"/><path class="st3" d="M186.3,199.7c0,0-2.4,0.1-2.4,3.5c0,3.5,0.9,8.2,4.6,7.8C192,210.6,192.7,198.8,186.3,199.7z" style="fill-rule: evenodd; clip-rule: evenodd; fill: rgb(125, 68, 28);" transform="matrix(3.5413241386413574, 0, 0, 3.5413241386413574, -92.15974426269531, -62.883575439453125)"/><path class="st2" d="M186.7,199.6c-0.2,1.3-0.1,2.9,0.6,4.1c1.3,2.1,1.8,5.1,1.6,7.1c-0.1,0.1-0.3,0.1-0.4,0.1&#10;&#9;&#9;&#9;&#9;c0-1.6-0.3-3.9-1.7-6c-0.7-1.1-1.2-1.6-1.2-3c0-0.8,0.2-1.6,0.4-2.2c0.1,0,0.2,0,0.2,0C186.4,199.6,186.6,199.6,186.7,199.6z" style="fill-rule: evenodd; clip-rule: evenodd; fill: rgb(37, 14, 7);" transform="matrix(3.5413241386413574, 0, 0, 3.5413241386413574, -92.15974426269531, -62.883575439453125)"/><path class="st3" d="M180.2,78.6c0,0-3.2,0.1-3.2,4.7c0,4.5,1.2,10.7,6,10.2C187.8,93,188.7,77.5,180.2,78.6z" style="fill-rule: evenodd; clip-rule: evenodd; fill: rgb(125, 68, 28);" transform="matrix(3.5413241386413574, 0, 0, 3.5413241386413574, -92.15974426269531, -62.883575439453125)"/><path class="st2" d="M180.8,78.6c-0.2,1.7-0.2,3.8,0.8,5.4c1.7,2.7,2.3,6.8,2.2,9.3c-0.2,0.1-0.3,0.1-0.5,0.2&#10;&#9;&#9;&#9;&#9;c0-2-0.5-5.2-2.3-7.9c-0.9-1.4-1.5-2.1-1.6-4c0-1.1,0.2-2.1,0.6-2.9c0.2,0,0.3,0,0.3,0C180.4,78.6,180.6,78.6,180.8,78.6z" style="fill-rule: evenodd; clip-rule: evenodd; fill: rgb(37, 14, 7);" transform="matrix(3.5413241386413574, 0, 0, 3.5413241386413574, -92.15974426269531, -62.883575439453125)"/><path class="st3" d="M186.7,53.6c0,0-1.6,0.1-1.6,2.3c0,2.3,0.6,5.4,3,5.2C190.5,60.8,191,53,186.7,53.6z" style="fill-rule: evenodd; clip-rule: evenodd; fill: rgb(125, 68, 28);" transform="matrix(3.5413241386413574, 0, 0, 3.5413241386413574, -92.15974426269531, -62.883575439453125)"/><path class="st2" d="M187,53.6c-0.1,0.9-0.1,1.9,0.4,2.7c0.9,1.4,1.2,3.4,1.1,4.7c-0.1,0-0.2,0.1-0.3,0.1c0-1-0.2-2.6-1.1-4&#10;&#9;&#9;&#9;&#9;c-0.5-0.7-0.8-1.1-0.8-2c0-0.6,0.1-1,0.3-1.5c0.1,0,0.1,0,0.1,0C186.8,53.6,186.9,53.6,187,53.6z" style="fill-rule: evenodd; clip-rule: evenodd; fill: rgb(37, 14, 7);" transform="matrix(3.5413241386413574, 0, 0, 3.5413241386413574, -92.15974426269531, -62.883575439453125)"/><g transform="matrix(3.5413241386413574, 0, 0, 3.5413241386413574, -92.15974426269531, -62.883575439453125)">
				<path class="st3" d="M155.4,127.5c0,0-3.2,0.1-3.2,4.7c0,4.5,1.2,10.7,6,10.2C162.9,141.9,163.8,126.4,155.4,127.5z" style="fill-rule: evenodd; clip-rule: evenodd; fill: rgb(125, 68, 28);"/>
			</g><path class="st2" d="M155.9,127.5c-0.2,1.7-0.2,3.8,0.8,5.4c1.7,2.7,2.3,6.8,2.2,9.3c-0.2,0.1-0.3,0.1-0.5,0.2&#10;&#9;&#9;&#9;&#9;c0-2-0.5-5.2-2.3-7.9c-0.9-1.4-1.5-2.1-1.6-4c0-1.1,0.2-2.1,0.6-2.9c0.2,0,0.3,0,0.3,0C155.6,127.5,155.7,127.5,155.9,127.5z" style="fill-rule: evenodd; clip-rule: evenodd; fill: rgb(37, 14, 7);" transform="matrix(3.5413241386413574, 0, 0, 3.5413241386413574, -92.15974426269531, -62.883575439453125)"/><path class="st3" d="M216.3,126.7c0,0-3.2,0.1-3.2,4.6c0,4.5,1.2,10.7,6,10.2C223.9,141.1,224.8,125.6,216.3,126.7z" style="fill-rule: evenodd; clip-rule: evenodd; fill: rgb(125, 68, 28);" transform="matrix(3.5413241386413574, 0, 0, 3.5413241386413574, -92.15974426269531, -62.883575439453125)"/><path class="st2" d="M216.9,126.7c-0.2,1.7-0.2,3.8,0.8,5.4c1.7,2.7,2.3,6.8,2.2,9.3c-0.2,0.1-0.3,0.1-0.5,0.2&#10;&#9;&#9;&#9;&#9;c0-2-0.5-5.2-2.3-7.9c-0.9-1.4-1.5-2.1-1.6-4c0-1.1,0.2-2.1,0.6-2.9c0.2,0,0.3,0,0.3,0C216.5,126.7,216.7,126.7,216.9,126.7z" style="fill-rule: evenodd; clip-rule: evenodd; fill: rgb(37, 14, 7);" transform="matrix(3.5413241386413574, 0, 0, 3.5413241386413574, -92.15974426269531, -62.883575439453125)"/><path class="st3" d="M201.9,133.9c0,0-3.2,0.1-3.2,4.6c0,4.5,1.2,10.7,6,10.2C209.4,148.3,210.3,132.8,201.9,133.9z" style="fill-rule: evenodd; clip-rule: evenodd; fill: rgb(125, 68, 28);" transform="matrix(3.5413241386413574, 0, 0, 3.5413241386413574, -92.15974426269531, -62.883575439453125)"/><path class="st2" d="M202.4,133.9c-0.2,1.7-0.2,3.8,0.8,5.4c1.7,2.7,2.3,6.8,2.2,9.3c-0.2,0.1-0.3,0.1-0.5,0.2&#10;&#9;&#9;&#9;&#9;c0-2-0.5-5.2-2.3-7.9c-0.9-1.4-1.5-2.1-1.6-4c0-1.1,0.2-2.1,0.6-2.9c0.2,0,0.3,0,0.3,0C202.1,133.9,202.2,133.9,202.4,133.9z" style="fill-rule: evenodd; clip-rule: evenodd; fill: rgb(37, 14, 7);" transform="matrix(3.5413241386413574, 0, 0, 3.5413241386413574, -92.15974426269531, -62.883575439453125)"/><path class="st3" d="M200.9,64c-1.6-0.7-4.6,0.9-6.2,4c-1.6,3,1.4,8.2,3.5,13c2.2,4.9-0.4,10.4-2.3,13c-2,2.6-7.1,5.3-10.3,13.8&#10;&#9;&#9;&#9;c-3.2,8.5,3.7,16.7,2.8,15.2c-1-1.9-2.8-5.3,0.4-13.8c3.2-8.5,8.4-11.1,10.3-13.8c2-2.6,4.5-8.1,2.3-13c-2.2-4.9-5.4-9.6-5.2-13.1&#10;&#9;&#9;&#9;C196.9,66.8,198.7,65.1,200.9,64z" style="fill-rule: evenodd; clip-rule: evenodd; fill: rgb(125, 68, 28);" transform="matrix(3.5413241386413574, 0, 0, 3.5413241386413574, -92.15974426269531, -62.883575439453125)"/>
</svg>