<?xml version="1.0" encoding="utf-8"?>
<svg id="master-artboard" viewBox="0 0 218.46742248535156 242.6819610595703" version="1.1" xmlns="http://www.w3.org/2000/svg" x="0px" y="0px" style="enable-background:new 0 0 1400 980;" width="218.46742248535156px" height="242.6819610595703px"><rect id="ee-background" x="0" y="0" width="218.46742248535156" height="242.6819610595703" style="fill: rgb(97, 59, 42); fill-opacity: 1; pointer-events: none;"/>

<path class="st1" d="M597.8,131.4c-6.5-11-19.1-13.2-30.8-12c-26.1,2.6-40.8,25.8-31.4,49.9c7,18,34.3,37.8,49.7,17.2&#10;&#9;&#9;c1.4-1.8-0.9-4.9-3.1-4c-14.3,6-26.6,3.2-35.4-10c-8.9-13.2-8.1-28.9,5-38.8c12.6-9.5,32.4-9.4,41,4.9c4.3,7.1,3.2,16.4-0.3,23.5&#10;&#9;&#9;c-5.6,2.9-9.2,3.7-10.9,2.5c0.8-6.6,0-14.2-0.6-18.5c-0.3-1.7-1.6-2.4-3-2.4c-0.3-1.1-1.1-2.1-2.6-2.3&#10;&#9;&#9;c-19.7-3.8-35.4,10.5-21.1,28.9c5.7,7.4,13.6,12,22.1,5.9c1-0.7,1.8-1.6,2.5-2.7c0.6,0.5,1.3,0.9,2,1.3c8.5,4.3,16.4-5.7,19.7-12&#10;&#9;&#9;C605.8,152.7,603.2,140.5,597.8,131.4z M562.5,166.7c-5.1-4.8-5.3-10.6-0.6-17.3c3.5-1.4,8.5-0.7,12.2-0.6&#10;&#9;&#9;c-0.2,3.2-0.6,6.6-0.6,9.9C572.5,166.5,569.8,173.8,562.5,166.7z" style="fill: rgb(255, 255, 255);" transform="matrix(1, 0, 0, 1, -455.938711694703, -62.52873865136159)"/><path class="st1" d="M662.2,176.3c-0.2-2.6-1.7-5.2-4.4-5.8c-10.5-2.5-16.6,3.6-25.3,9.6c-13.3,9.2-25.9,19.7-36.3,32.1&#10;&#9;&#9;c-7.4-6.5-16.5-13.2-24.4-11.7c-10.8,2.2-21,8-30.8,14.5c-0.1-0.2-0.2-0.4-0.3-0.6c-14.7-19.1-38.8-33.2-58-47.7&#10;&#9;&#9;c-0.9-0.7-2.2-0.9-3.5-0.7c29.7-21.2,55.3-48.2,85.4-69.3c25.7-18,65.2,57.8,84.8,71.2c3.6,2.5,6.7-2.1,5.3-5.3&#10;&#9;&#9;c-9.5-22.1-31-41.9-46.5-60.2c-6-7.1-21.5-28.1-33.9-24.7c-18.4,5.1-37.7,25.2-52.2,37.2c-18.3,15.2-37.4,31.4-50.2,51.6&#10;&#9;&#9;c-1.1,1.7,1.1,4,2.8,2.8c0.1-0.1,0.2-0.1,0.2-0.2c-7.8,10.5-8.5,21.9-8.1,35.1c0.7,20.8,1.4,41.5,4.9,62c0.6,3.4,5.1,2.1,5.5-0.7&#10;&#9;&#9;c3.3-26.6-3.4-59.3,5.2-85.2c17,13.3,33.7,29.6,52.8,38.8c-5.1,3.6-10,7.3-14.7,10.6c-17.9,12.5-35.7,26.6-49.3,43.8&#10;&#9;&#9;c-1.3,1.7,0.4,4.6,2.5,3.2c1.4-0.9,2.8-1.8,4.2-2.8c0.4,2.9,2.5,5.6,6.2,5.8c54.8,2.7,110,1,164.9-1.6c0.4,0,0.8-0.1,1.2-0.2&#10;&#9;&#9;c1.9,0.9,4.1,0.7,5.2-1.7C668.2,247.3,664.4,207.2,662.2,176.3z M488.4,266.8c20.3-14.2,39.7-29.7,61-42.6&#10;&#9;&#9;c5.3-3.1,10.7-6.2,16.1-9.2c11.7-6.6,30.7,13.2,38.7,20.2c11.3,9.9,21.8,20.6,31.9,31.7C586.8,268.7,537.7,267.8,488.4,266.8z&#10;&#9;&#9; M650.6,221.5c-0.5,13.1-3.2,26.6-3.8,39.8c-13.2-14.3-27-27.9-41.6-40.8c-1.3-1.2-2.9-2.7-4.7-4.3c7-4.5,13.7-9.4,20.5-14.2&#10;&#9;&#9;c5.5-3.8,20.1-17.2,29.3-19.6C650.9,195.4,651.1,208.5,650.6,221.5z" style="fill: rgb(255, 255, 255);" transform="matrix(1, 0, 0, 1, -455.938711694703, -62.52873865136159)"/>

</svg>